<svg width="18" height="14" viewBox="0 0 18 14" fill="none" xmlns="http://www.w3.org/2000/svg">
<path d="M16 1.5C16.275 1.5 16.5 1.725 16.5 2V12C16.5 12.275 16.275 12.5 16 12.5H2C1.725 12.5 1.5 12.275 1.5 12V2C1.5 1.725 1.725 1.5 2 1.5H16ZM2 0C0.896875 0 0 0.896875 0 2V12C0 13.1031 0.896875 14 2 14H16C17.1031 14 18 13.1031 18 12V2C18 0.896875 17.1031 0 16 0H2ZM6.5 7C7.03043 7 7.53914 6.78929 7.91421 6.41421C8.28929 6.03914 8.5 5.53043 8.5 5C8.5 4.46957 8.28929 3.96086 7.91421 3.58579C7.53914 3.21071 7.03043 3 6.5 3C5.96957 3 5.46086 3.21071 5.08579 3.58579C4.71071 3.96086 4.5 4.46957 4.5 5C4.5 5.53043 4.71071 6.03914 5.08579 6.41421C5.46086 6.78929 5.96957 7 6.5 7ZM5.5 8C4.11875 8 3 9.11875 3 10.5C3 10.775 3.225 11 3.5 11H9.5C9.775 11 10 10.775 10 10.5C10 9.11875 8.88125 8 7.5 8H5.5ZM11.75 3.5C11.3344 3.5 11 3.83437 11 4.25C11 4.66563 11.3344 5 11.75 5H14.25C14.6656 5 15 4.66563 15 4.25C15 3.83437 14.6656 3.5 14.25 3.5H11.75ZM11.75 6.5C11.3344 6.5 11 6.83437 11 7.25C11 7.66563 11.3344 8 11.75 8H14.25C14.6656 8 15 7.66563 15 7.25C15 6.83437 14.6656 6.5 14.25 6.5H11.75Z" fill="#586474"/>
</svg>
