<svg width="114" height="46" viewBox="0 0 114 46" fill="none" xmlns="http://www.w3.org/2000/svg">
<g clip-path="url(#clip0_351_7)">
<g clip-path="url(#clip1_351_7)">
<g clip-path="url(#clip2_351_7)">
<g clip-path="url(#clip3_351_7)">
<g clip-path="url(#clip4_351_7)">
<g clip-path="url(#clip5_351_7)">
<g clip-path="url(#clip6_351_7)">
<path d="M55.981 21.4238H48.4108V21.1348L48.7864 21.0481C49.1522 20.9516 49.4412 20.7823 49.6532 20.5396C49.8653 20.3009 49.9711 19.9889 49.9711 19.6034C49.9711 18.8909 49.9769 18.1819 49.9884 17.4768C49.9959 16.7759 50 16.0685 50 15.356V8.10359H48.3819V7.78576L49.0176 7.67018C49.403 7.63146 49.6821 7.49681 49.8555 7.26566C50.0289 7.03451 50.1543 6.71667 50.2311 6.31216C50.4236 5.56091 50.709 4.90039 51.0864 4.33002C51.4603 3.7637 51.8879 3.23956 52.3693 2.75818C53.1015 2.06472 53.8776 1.57757 54.6981 1.29614C55.5147 1.01876 56.318 0.880066 57.1079 0.880066C57.8782 0.880066 58.5815 1.03783 59.2172 1.35393C59.8529 1.6735 60.1707 2.19937 60.1707 2.93155C60.1707 3.45164 60.0164 3.8602 59.7084 4.15666C59.4004 4.45716 58.967 4.6074 58.4081 4.6074C57.9458 4.6074 57.5223 4.482 57.1368 4.23178C56.7514 3.98156 56.3757 3.53832 56.0099 2.90265L55.6054 2.41145C55.3933 2.14158 55.1818 2.01098 54.9698 2.01849C54.7577 2.03005 54.604 2.19012 54.5074 2.49814C54.3728 3.17252 54.2722 3.96191 54.2069 4.86745C54.1376 5.77299 54.1029 6.65889 54.1029 7.52571H57.3391V8.10359H54.1029V19.5457C54.1029 20.2778 54.4884 20.7494 55.2587 20.9615L55.981 21.1348V21.4238ZM65.7473 21.4238H58.2637V21.1348L58.6971 21.0193C59.0825 20.9037 59.3484 20.7303 59.4946 20.4992C59.6373 20.268 59.7084 19.9692 59.7084 19.6034V10.5596C59.7084 10.136 59.6373 9.82163 59.4946 9.61764C59.3484 9.41712 59.0825 9.27843 58.6971 9.20157L58.2637 9.08599V8.79705L63.2335 7.12119L63.5224 7.41013L63.7825 9.89503V10.1262C64.0523 9.58701 64.4048 9.09004 64.84 8.63524C65.2717 8.1845 65.753 7.81465 66.2847 7.52571C66.8123 7.23677 67.3364 7.0923 67.8565 7.0923C68.5887 7.0923 69.1469 7.29456 69.5324 7.69907C69.9178 8.10359 70.1103 8.61386 70.1103 9.23046C70.1103 9.8852 69.9236 10.3903 69.5497 10.7445C69.1724 11.1028 68.7233 11.2819 68.2032 11.2819C67.3942 11.2819 66.6817 10.8774 66.0651 10.0684L66.0073 10.0106C65.8149 9.74073 65.593 9.59048 65.3427 9.55985C65.0925 9.53269 64.8614 9.65405 64.6493 9.92392C64.4568 10.0973 64.2985 10.3053 64.1754 10.548C64.0483 10.7867 63.9269 11.0606 63.8113 11.3686V19.4301C63.8113 20.2004 64.1483 20.6823 64.8226 20.8748L65.7473 21.1348V21.4238ZM78.2584 7.0923C79.5107 7.0923 80.5797 7.34657 81.4656 7.8551C82.3515 8.36768 83.0317 9.06114 83.5056 9.93548C83.9754 10.8139 84.2106 11.8119 84.2106 12.9289C84.2106 13.141 84.2008 13.3565 84.1817 13.5761C84.1626 13.7998 84.1239 13.998 84.0661 14.1714H75.4557C75.4747 16.2517 75.8469 17.7484 76.571 18.6615C77.2916 19.5786 78.3641 20.0369 79.7898 20.0369C80.7531 20.0369 81.5333 19.8826 82.1302 19.5745C82.7272 19.2665 83.286 18.8135 83.8061 18.2165L84.095 18.4766C83.4981 19.5358 82.704 20.3645 81.7141 20.9615C80.7202 21.5584 79.5297 21.8572 78.1428 21.8572C76.775 21.8572 75.5614 21.5625 74.5022 20.973C73.4429 20.3876 72.6142 19.5457 72.0173 18.4477C71.4203 17.3497 71.1216 16.0396 71.1216 14.5181C71.1216 12.9387 71.4683 11.594 72.1617 10.4845C72.8552 9.37898 73.7469 8.537 74.8373 7.95912C75.9238 7.38124 77.0639 7.0923 78.2584 7.0923ZM78.1717 7.67018C77.6129 7.67018 77.1373 7.83777 76.7443 8.17294C76.3473 8.51215 76.0393 9.10911 75.8197 9.96437C75.5961 10.8237 75.4747 12.0332 75.4557 13.5935H80.3966C80.589 11.494 80.5121 9.98171 80.1654 9.0571C79.8187 8.13249 79.1541 7.67018 78.1717 7.67018ZM90.654 21.8572C89.7103 21.8572 88.8625 21.7474 88.1113 21.5278C87.36 21.3042 86.6666 21.0291 86.0309 20.7014L86.0598 17.263H86.3487L87.3311 18.9967C87.7547 19.767 88.2228 20.3391 88.7354 20.713C89.2439 21.0903 89.8929 21.2793 90.6829 21.2793C91.6075 21.2793 92.3547 21.0713 92.925 20.6552C93.4914 20.2432 93.7745 19.6901 93.7745 18.9967C93.7745 18.361 93.5723 17.8409 93.1678 17.4364C92.7632 17.0319 92.012 16.6661 90.914 16.3384L89.7005 15.9628C88.5256 15.6161 87.601 15.0769 86.9266 14.3447C86.2522 13.6125 85.9153 12.7168 85.9153 11.6576C85.9153 10.3862 86.4164 9.30732 87.4178 8.42143C88.4193 7.53553 89.8548 7.0923 91.723 7.0923C92.4743 7.0923 93.1834 7.1732 93.8497 7.33501C94.5125 7.50086 95.1516 7.74704 95.7682 8.0747L95.5949 11.1953H95.3059L94.2946 9.40383C93.9288 8.76816 93.5682 8.31914 93.214 8.05736C92.8557 7.79905 92.32 7.67018 91.6075 7.67018C90.9527 7.67018 90.3361 7.85337 89.7582 8.21917C89.1804 8.58497 88.8914 9.10506 88.8914 9.77945C88.8914 10.4342 89.1382 10.9543 89.6311 11.3397C90.1206 11.7252 90.8464 12.0812 91.8097 12.4088L93.11 12.7844C94.4969 13.208 95.4891 13.79 96.0861 14.5296C96.683 15.2734 96.9818 16.165 96.9818 17.2052C96.9818 18.6112 96.4287 19.7381 95.3232 20.5858C94.2137 21.4336 92.6575 21.8572 90.654 21.8572ZM105.101 21.4238H98.3398V21.1348L98.6865 21.0193C99.38 20.7881 99.7267 20.3067 99.7267 19.5745V4.1451C99.7267 3.74058 99.6591 3.44182 99.5245 3.24938C99.3898 3.05695 99.1298 2.91248 98.7443 2.81597L98.3109 2.70039V2.41145L103.396 1.16901L103.859 1.42905L103.743 5.50312V9.11489C104.417 8.55607 105.146 8.07874 105.927 7.68174C106.706 7.28878 107.567 7.0923 108.511 7.0923C109.763 7.0923 110.76 7.44885 111.504 8.16138C112.244 8.87391 112.613 9.97188 112.613 11.4553V19.6034C112.613 19.9889 112.69 20.2969 112.845 20.5281C112.999 20.7592 113.268 20.9326 113.654 21.0481L113.885 21.1348V21.4238H107.124V21.1348L107.47 21.0481C108.164 20.817 108.511 20.3258 108.511 19.5745V10.5018C108.511 9.73149 108.382 9.20157 108.123 8.91263C107.862 8.62369 107.403 8.47921 106.748 8.47921C106.324 8.47921 105.862 8.56012 105.361 8.72193C104.86 8.88778 104.35 9.17267 103.83 9.57719V19.6323C103.83 20.3836 104.176 20.865 104.87 21.077L105.101 21.1348V21.4238Z" fill="white"/>
<path d="M55.981 44.1345H48.4108V43.8456L48.7864 43.7589C49.1522 43.6624 49.4412 43.4931 49.6532 43.2504C49.8653 43.0117 49.9711 42.6996 49.9711 42.3142C49.9711 41.6017 49.9769 40.8926 49.9884 40.1876C49.9959 39.4866 50 38.7793 50 38.0668V30.8143H48.3819V30.4965L49.0176 30.3809C49.403 30.3422 49.6821 30.2076 49.8555 29.9764C50.0289 29.7453 50.1543 29.4274 50.2311 29.0229C50.4236 28.2717 50.709 27.6111 51.0864 27.0408C51.4603 26.4745 51.8879 25.9503 52.3693 25.4689C53.1015 24.7755 53.8776 24.2883 54.6981 24.0069C55.5147 23.7295 56.3179 23.5908 57.1079 23.5908C57.8782 23.5908 58.5815 23.7486 59.2172 24.0647C59.8529 24.3843 60.1707 24.9101 60.1707 25.6423C60.1707 26.1624 60.0164 26.571 59.7084 26.8674C59.4004 27.1679 58.967 27.3182 58.4081 27.3182C57.9458 27.3182 57.5223 27.1928 57.1368 26.9425C56.7514 26.6923 56.3757 26.2491 56.0099 25.6134L55.6054 25.1222C55.3933 24.8523 55.1818 24.7217 54.9698 24.7292C54.7577 24.7408 54.604 24.9009 54.5074 25.2089C54.3728 25.8833 54.2722 26.6727 54.2069 27.5782C54.1376 28.4837 54.1029 29.3696 54.1029 30.2365H57.3391V30.8143H54.1029V42.2564C54.1029 42.9886 54.4884 43.4601 55.2587 43.6722L55.981 43.8456V44.1345ZM61.731 28.3006C61.0762 28.3006 60.5232 28.0925 60.0724 27.6764C59.6177 27.2644 59.3905 26.7403 59.3905 26.1046C59.3905 25.4499 59.6177 24.9199 60.0724 24.5154C60.5232 24.1109 61.0762 23.9087 61.731 23.9087C62.3857 23.9087 62.9347 24.1109 63.3779 24.5154C63.8212 24.9199 64.0425 25.4499 64.0425 26.1046C64.0425 26.7403 63.8212 27.2644 63.3779 27.6764C62.9347 28.0925 62.3857 28.3006 61.731 28.3006ZM65.0827 44.1345H58.3215V43.8456L58.726 43.73C59.1114 43.6144 59.3773 43.4411 59.5235 43.2099C59.6662 42.9788 59.7373 42.6708 59.7373 42.2853V33.2414C59.7373 32.8369 59.6662 32.5324 59.5235 32.3284C59.3773 32.1279 59.1114 31.9892 58.726 31.9123L58.3215 31.8256V31.5367L63.6091 29.8319L63.898 30.1209L63.8113 34.2238V42.3142C63.8113 42.6996 63.8847 43.0077 64.0309 43.2388C64.1737 43.47 64.4279 43.6433 64.7937 43.7589L65.0827 43.8456V44.1345ZM73.1441 44.1345H66.354V43.8456L66.7585 43.73C67.4329 43.5376 67.7698 43.0654 67.7698 42.3142V33.2703C67.7698 32.8468 67.7022 32.5324 67.5676 32.3284C67.4329 32.1279 67.1729 31.9892 66.7874 31.9123L66.354 31.7967V31.5078L71.2949 29.8319L71.5839 30.1209L71.815 31.8545C72.4894 31.2576 73.2499 30.7664 74.0976 30.3809C74.9454 29.9955 75.7833 29.8031 76.6114 29.8031C77.8828 29.8031 78.8611 30.1498 79.5471 30.8432C80.229 31.5367 80.5699 32.596 80.5699 34.0216V42.3431C80.5699 43.0943 80.9357 43.5665 81.6679 43.7589L81.9279 43.8456V44.1345H75.1089V43.8456L75.4846 43.73C76.1589 43.5179 76.4959 43.0464 76.4959 42.3142V33.097C76.4959 31.8644 75.8793 31.2478 74.6466 31.2478C73.7989 31.2478 72.8743 31.6713 71.8728 32.5191V42.3431C71.8728 43.0943 72.2097 43.5665 72.8841 43.7589L73.1441 43.8456V44.1345ZM89.1804 44.5679C88.0437 44.5679 87.0231 44.3119 86.1176 43.7994C85.212 43.2908 84.4955 42.5032 83.9679 41.4358C83.4362 40.365 83.1704 38.9914 83.1704 37.3155C83.1704 35.6206 83.4692 34.2198 84.0661 33.1143C84.6631 32.0048 85.453 31.1744 86.4354 30.6236C87.4178 30.0764 88.4869 29.8031 89.6427 29.8031C90.3171 29.8031 90.962 29.8707 91.5786 30.0053C92.1952 30.14 92.7442 30.3422 93.2255 30.6121V26.8559C93.2255 26.4513 93.1637 26.1526 93.0406 25.9601C92.9135 25.7677 92.6476 25.6325 92.2431 25.5556L91.6941 25.44V25.1511L96.9529 23.8798L97.2707 24.1398L97.1551 28.185V42.3142C97.1551 42.6996 97.2227 43.0117 97.3574 43.2504C97.492 43.4931 97.7428 43.6624 98.1086 43.7589L98.3687 43.8456V44.1345L93.4278 44.4524L93.1677 43.4122C92.6477 43.7589 92.0565 44.038 91.3936 44.2501C90.7274 44.4622 89.9894 44.5679 89.1804 44.5679ZM90.8562 43.4989C91.6653 43.4989 92.4067 43.2579 93.0811 42.7765V31.3055C92.3685 30.8432 91.6364 30.6121 90.8851 30.6121C89.9605 30.6121 89.1705 31.1455 88.5158 32.2128C87.8611 33.2836 87.5334 34.9653 87.5334 37.2577C87.5334 39.5502 87.8414 41.1625 88.458 42.0946C89.0746 43.0308 89.8738 43.4989 90.8562 43.4989ZM104.639 44.5679C103.695 44.5679 102.847 44.4581 102.096 44.2385C101.345 44.0149 100.651 43.7398 100.016 43.4122L100.045 39.9738H100.333L101.316 41.7074C101.739 42.4777 102.208 43.0498 102.72 43.4237C103.229 43.8011 103.878 43.9901 104.668 43.9901C105.592 43.9901 106.339 43.782 106.91 43.3659C107.476 42.9539 107.759 42.4009 107.759 41.7074C107.759 41.0718 107.557 40.5517 107.152 40.1471C106.748 39.7426 105.997 39.3768 104.899 39.0492L103.685 38.6735C102.51 38.3268 101.586 37.7876 100.911 37.0555C100.237 36.3233 99.9001 35.4276 99.9001 34.3683C99.9001 33.097 100.401 32.0181 101.403 31.1322C102.404 30.2463 103.839 29.8031 105.708 29.8031C106.459 29.8031 107.166 29.884 107.829 30.0458C108.495 30.2116 109.136 30.4578 109.753 30.7855L109.58 33.906H109.291L108.279 32.1146C107.914 31.4789 107.553 31.0299 107.199 30.7681C106.84 30.5098 106.305 30.3809 105.592 30.3809C104.937 30.3809 104.321 30.5641 103.743 30.9299C103.165 31.2957 102.876 31.8158 102.876 32.4902C102.876 33.1449 103.123 33.665 103.616 34.0505C104.105 34.4359 104.831 34.7919 105.794 35.1196L107.095 35.4952C108.482 35.9188 109.474 36.5007 110.071 37.2404C110.668 37.9841 110.967 38.8758 110.967 39.916C110.967 41.322 110.412 42.4488 109.302 43.2966C108.197 44.1444 106.642 44.5679 104.639 44.5679Z" fill="white"/>
</g>
</g>
</g>
</g>
<g clip-path="url(#clip7_351_7)">
<g clip-path="url(#clip8_351_7)">
<path d="M33.2855 41.2062C32.2205 41.4481 31.099 41.5815 29.9247 41.5815C23.6107 41.5815 16.6876 38.0989 11.4091 32.265C5.00906 25.1932 2.59148 16.33 4.63554 9.80188C-0.175429 15.986 -1.17775 24.2599 1.77995 31.3397C2.03076 33.0058 2.53595 36.93 1.94029 38.2395C1.94029 38.2395 5.01533 38.1858 7.76254 39.4864C14.975 45.5953 25.3637 46.2778 33.2855 41.2062Z" fill="white"/>
<path d="M24.7842 37.8669L25.104 37.9601C26.7046 38.4258 28.2704 38.6623 29.7573 38.6623C31.5962 38.6623 33.2811 38.2942 34.768 37.5668C35.2633 37.3232 35.7667 37.007 36.306 36.6012L36.658 36.337L25.5491 22.7479L24.7842 37.8669Z" fill="white"/>
<path d="M7.41589 18.8568L7.56996 19.4704C8.3806 22.6995 10.0144 25.9456 12.2976 28.8603L12.5637 29.1998L22.3585 21.1266L7.41589 18.8568Z" fill="white"/>
<path d="M17.483 4.16504C16.1967 4.16504 14.9615 4.35314 13.8105 4.72308L13.2238 4.91387L24.0299 18.1313L24.6524 5.78273L24.381 5.66808C22.0199 4.67113 19.6991 4.16504 17.483 4.16504Z" fill="white"/>
<path d="M11.6294 5.72272L11.3106 5.93859C10.9155 6.2082 10.5976 6.45274 10.3145 6.70981C9.71436 7.25083 9.19036 7.87964 8.71294 8.63116C7.33799 10.7854 6.77547 13.5819 7.08808 16.7178L7.11943 17.0439L22.8359 19.431L11.6294 5.72272Z" fill="white"/>
<path d="M33.0212 11.7519C31.1653 9.81532 29.123 8.19853 26.9571 6.94898L26.3606 6.60413L25.7694 18.3149L33.3339 12.0797L33.0212 11.7519Z" fill="white"/>
<path d="M40.0975 25.5766C40.0402 25.1269 39.9524 24.6432 39.8297 24.0565L39.7688 23.7717L27.0656 21.8423L37.8931 35.0893L38.2129 34.6441C39.9121 32.2847 40.5633 29.1497 40.0975 25.5766Z" fill="white"/>
<path d="M39.2601 21.9247L39.0218 21.2609C38.0714 18.6123 36.6356 16.0782 34.7527 13.7296L34.4867 13.3964L26.4896 19.9854L39.2601 21.9247Z" fill="white"/>
<path d="M14.0103 30.8542C16.53 33.5369 19.468 35.6661 22.5054 37.0124L23.0652 37.2605L23.8266 22.1808L13.7021 30.5264L14.0103 30.8542Z" fill="white"/>
<path d="M29.8737 41.9237C23.5006 41.9237 16.5121 38.4805 11.1816 32.7129C2.46253 23.2745 0.863652 10.5202 7.61657 4.27787C10.0359 2.04213 13.2776 0.860657 16.9913 0.860657C23.3653 0.860657 30.3529 4.30474 35.6816 10.0724C44.4033 19.5071 46.0031 32.2632 39.2484 38.5064C36.8281 40.7422 33.5865 41.9237 29.8737 41.9237ZM16.9922 2.32339C13.6529 2.32339 10.7543 3.37139 8.60993 5.35275C2.4491 11.0469 4.0847 22.8759 12.2565 31.7195C17.3155 37.1933 23.901 40.4618 29.8737 40.4618C33.213 40.4618 36.1107 39.4147 38.255 37.4334C44.4168 31.7383 42.7812 19.9093 34.6076 11.0657C29.5503 5.59101 22.9649 2.32339 16.9922 2.32339Z" fill="white"/>
</g>
</g>
</g>
</g>
</g>
<defs>
<clipPath id="clip0_351_7">
<rect width="114" height="45.448" fill="white"/>
</clipPath>
<clipPath id="clip1_351_7">
<rect width="113.77" height="45.4215" fill="white" transform="translate(0.115173 0.0132446)"/>
</clipPath>
<clipPath id="clip2_351_7">
<rect width="113.77" height="45.4215" fill="white" transform="translate(0.115173 0.0132446)"/>
</clipPath>
<clipPath id="clip3_351_7">
<rect width="65.5029" height="45.4215" fill="white" transform="translate(48.3818 0.0132446)"/>
</clipPath>
<clipPath id="clip4_351_7">
<rect width="65.5029" height="45.4215" fill="white" transform="translate(48.3818 0.0132446)"/>
</clipPath>
<clipPath id="clip5_351_7">
<rect width="65.5029" height="45.4215" fill="white" transform="translate(48.3818 0.0132446)"/>
</clipPath>
<clipPath id="clip6_351_7">
<rect width="65.5029" height="45.4215" fill="white" transform="translate(48.3818 0.0132446)"/>
</clipPath>
<clipPath id="clip7_351_7">
<rect width="43.3145" height="43.7266" fill="white" transform="translate(0.115173 0.860657)"/>
</clipPath>
<clipPath id="clip8_351_7">
<rect width="43.3145" height="43.7266" fill="white" transform="translate(0.115173 0.860657)"/>
</clipPath>
</defs>
</svg>
