<svg width="19" height="16" viewBox="0 0 19 16" fill="#586474" xmlns="http://www.w3.org/2000/svg">
<path d="M15.1733 8.78222L9.77778 14.1689V16H11.6089L16.9956 10.6044M18.4 8.51556L17.2622 7.37778C17.2195 7.33055 17.1674 7.29274 17.1092 7.26672C17.0511 7.24071 16.9881 7.22707 16.9244 7.22667C16.7911 7.23556 16.6667 7.28 16.5778 7.37778L15.6889 8.26667L17.5111 10.0444L18.4 9.15556C18.5689 8.97778 18.5689 8.69333 18.4 8.51556ZM8 12.4444H1.77778V3.55556L8.88889 8L16 3.55556V5.33333H17.7778V1.77778C17.7778 0.8 16.9778 0 16 0H1.77778C0.8 0 0 0.8 0 1.77778V12.4444C0 13.4222 0.8 14.2222 1.77778 14.2222H8V12.4444ZM16 1.77778L8.88889 6.22222L1.77778 1.77778H16Z" 
fill="#586474"/>
</svg>
