<svg width="21" height="31" viewBox="0 0 21 31" fill="none" xmlns="http://www.w3.org/2000/svg">
<g clip-path="url(#clip0_597_10)">
<path d="M5.79016 22.3014C6.66086 23.411 7.45331 24.5798 8.16177 25.7994C8.76667 26.9464 9.01883 27.7241 9.4609 29.1061C9.73201 29.8696 9.97704 30.0975 10.5038 30.0975C11.0779 30.0975 11.3383 29.7098 11.5396 29.1103C11.9574 27.8051 12.2853 26.8091 12.8026 25.868C13.8177 24.051 15.079 22.4364 16.3183 20.8846C16.6538 20.4454 18.823 17.8867 19.7996 15.8679C19.7996 15.8679 20.9999 13.6502 20.9999 10.5529C20.9999 7.65573 19.8162 5.64637 19.8162 5.64637L16.4082 6.55905L14.3386 12.0101L13.8265 12.7618L13.7241 12.8979L13.588 13.0684L13.3489 13.3407L13.0074 13.6822L11.1644 15.1837L6.55666 17.8441L5.79016 22.3014Z" fill="#34A853"/>
<path d="M1.03455 15.495C2.15911 18.0637 4.32769 20.3217 5.7949 22.3032L13.588 13.0719C13.588 13.0719 12.49 14.5078 10.4985 14.5078C8.28012 14.5078 6.48798 12.7363 6.48798 10.5026C6.48798 8.97085 7.40952 7.91856 7.40952 7.91856L2.11941 9.33606L1.03455 15.495Z" fill="#FBBC04"/>
<path d="M13.675 0.474716C16.2632 1.30922 18.4786 3.06116 19.8186 5.64457L13.5903 13.0666C13.5903 13.0666 14.5119 11.9953 14.5119 10.473C14.5119 8.18729 12.5872 6.47973 10.5079 6.47973C8.54172 6.47973 7.41248 7.91323 7.41248 7.91323V3.23745L13.675 0.474716Z" fill="#4285F4"/>
<path d="M2.46216 3.75416C4.00804 1.9046 6.72819 0 10.4783 0C12.2978 0 13.6685 0.477668 13.6685 0.477668L7.40659 7.91733H2.96993L2.46216 3.75416Z" fill="#1A73E8"/>
<path d="M1.03458 15.4951C1.03458 15.4951 0 13.469 0 10.534C0 7.75992 1.07838 5.33507 2.46217 3.75417L7.41013 7.91799L1.03458 15.4951Z" fill="#EA4335"/>
</g>
<defs>
<clipPath id="clip0_597_10">
<rect width="21" height="30.1055" fill="white"/>
</clipPath>
</defs>
</svg>
