<svg width="20" height="20" viewBox="0 0 20 20" fill="none" xmlns="http://www.w3.org/2000/svg">
<path fill-rule="evenodd" clip-rule="evenodd" d="M10 0C14.714 0 17.071 0 18.535 1.464C19.039 1.968 19.37 2.578 19.587 3.353L3.353 19.587C2.578 19.37 1.968 19.039 1.464 18.535C0 17.072 0 14.714 0 10C0 5.286 0 2.929 1.464 1.464C2.93 0 5.286 0 10 0ZM3.5 6.757C3.5 8.542 4.617 10.625 6.36 11.37C6.766 11.543 7.234 11.543 7.64 11.37C9.383 10.625 10.5 8.542 10.5 6.757C10.5 4.958 8.933 3.5 7 3.5C5.067 3.5 3.5 4.958 3.5 6.757Z" fill="#00A67C"/>
<path d="M8.5 7C8.5 7.39782 8.34196 7.77936 8.06066 8.06066C7.77936 8.34196 7.39782 8.5 7 8.5C6.60218 8.5 6.22064 8.34196 5.93934 8.06066C5.65804 7.77936 5.5 7.39782 5.5 7C5.5 6.60218 5.65804 6.22064 5.93934 5.93934C6.22064 5.65804 6.60218 5.5 7 5.5C7.39782 5.5 7.77936 5.65804 8.06066 5.93934C8.34196 6.22064 8.5 6.60218 8.5 7Z" fill="#00A67C"/>
<path opacity="0.5" d="M19.89 5.172C20 6.433 20 8.006 20 10C20 14.134 20 16.455 19.013 17.951L13.06 12L19.89 5.172ZM17.952 19.012L12.001 13.061L5.17102 19.889C6.43302 20 8.00602 20 10.001 20C14.135 20 16.456 20 17.952 19.012Z" fill="#00C593"/>
</svg>
