<svg width="22" height="22" viewBox="0 0 22 22" fill="none" xmlns="http://www.w3.org/2000/svg">
<path d="M11 3C15.4183 3 19 6.58172 19 11C19 15.4183 15.4183 19 11 19C6.58172 19 3 15.4183 3 11C3 6.58172 6.58172 3 11 3Z" stroke="black" stroke-width="2" stroke-linecap="round"/>
<path d="M11 3V1M19 11H21M11 19V21M3 11H1" stroke="black" stroke-width="2" stroke-linecap="round"/>
<path d="M11 15C13.2091 15 15 13.2091 15 11C15 8.79086 13.2091 7 11 7C8.79086 7 7 8.79086 7 11C7 13.2091 8.79086 15 11 15Z" fill="black"/>
</svg>
