<svg width="18" height="17" viewBox="0 0 18 17" fill="none" xmlns="http://www.w3.org/2000/svg">
<path d="M7.36364 8.18182C7.14664 8.18182 6.93853 8.26802 6.7851 8.42146C6.63166 8.5749 6.54546 8.78301 6.54546 9.00001C6.54546 9.217 6.63166 9.42511 6.7851 9.57855C6.93853 9.73199 7.14664 9.81819 7.36364 9.81819H10.6364C10.8534 9.81819 11.0615 9.73199 11.2149 9.57855C11.3683 9.42511 11.4545 9.217 11.4545 9.00001C11.4545 8.78301 11.3683 8.5749 11.2149 8.42146C11.0615 8.26802 10.8534 8.18182 10.6364 8.18182H7.36364Z" fill="#586474"/>
<path fill-rule="evenodd" clip-rule="evenodd" d="M2.45455 0C1.80356 0 1.17924 0.258603 0.71892 0.71892C0.258603 1.17924 0 1.80356 0 2.45455V13.9091C0 14.5601 0.258603 15.1844 0.71892 15.6447C1.17924 16.105 1.80356 16.3636 2.45455 16.3636H15.5455C16.1964 16.3636 16.8208 16.105 17.2811 15.6447C17.7414 15.1844 18 14.5601 18 13.9091V2.45455C18 1.80356 17.7414 1.17924 17.2811 0.71892C16.8208 0.258603 16.1964 0 15.5455 0H2.45455ZM15.5455 1.63636H2.45455C2.23755 1.63636 2.02944 1.72256 1.876 1.876C1.72256 2.02944 1.63636 2.23755 1.63636 2.45455V4.90909H16.3636V2.45455C16.3636 2.23755 16.2774 2.02944 16.124 1.876C15.9706 1.72256 15.7624 1.63636 15.5455 1.63636ZM1.63636 13.9091V6.54545H16.3636V13.9091C16.3636 14.1261 16.2774 14.3342 16.124 14.4876C15.9706 14.6411 15.7624 14.7273 15.5455 14.7273H2.45455C2.23755 14.7273 2.02944 14.6411 1.876 14.4876C1.72256 14.3342 1.63636 14.1261 1.63636 13.9091Z" fill="#586474"/>
</svg>
