<svg width="19" height="20" viewBox="0 0 19 20" fill="none" xmlns="http://www.w3.org/2000/svg">
<path d="M5.34375 7.75694V5.82639C5.34375 3.16126 6.53973 1 9.20486 1C11.87 1 13.066 3.16126 13.066 5.82639V7.75694M9.20486 13.3073V12.8247M13.066 13.3073V12.8247M5.34375 13.3073V12.8247M1 15.2861V10.8458C1 9.76472 1 9.22417 1.21043 8.81199C1.39535 8.44839 1.6907 8.15271 2.05408 7.96738C2.46722 7.75791 3.00778 7.75791 4.08889 7.75791H14.3208C15.4019 7.75791 15.9425 7.75791 16.3556 7.96738C16.7189 8.15246 17.0142 8.44779 17.1993 8.81103C17.4097 9.22417 17.4097 9.76472 17.4097 10.8458V15.2861C17.4097 16.3672 17.4097 16.9078 17.1993 17.3209C17.0142 17.6842 16.7189 17.9795 16.3556 18.1646C15.9425 18.375 15.4019 18.375 14.3208 18.375H4.08889C3.00778 18.375 2.46722 18.375 2.05408 18.1646C1.69084 17.9795 1.39552 17.6842 1.21043 17.3209C1 16.9087 1 16.3682 1 15.2861Z" stroke="#586474" stroke-width="1.65476" stroke-linecap="round" stroke-linejoin="round"/>
</svg>
