<svg width="21" height="19" viewBox="0 0 21 19" fill="none" xmlns="http://www.w3.org/2000/svg">
<path d="M10.501 2.34023C11.596 1.36005 13.0248 0.836479 14.4938 0.877117C15.9629 0.917755 17.3605 1.51951 18.3996 2.55873C19.4378 3.59679 20.0396 4.99265 20.0817 6.46019C20.1237 7.92772 19.6029 9.35576 18.6258 10.4516L10.4991 18.5897L2.37437 10.4516C1.39616 9.35519 0.874777 7.92593 0.917263 6.45721C0.959749 4.9885 1.56288 3.59177 2.60284 2.55377C3.64279 1.51578 5.04066 0.915289 6.50945 0.875577C7.97825 0.835865 9.40652 1.35995 10.501 2.34023ZM17.0426 3.91285C16.3503 3.22106 15.4195 2.82043 14.4412 2.79317C13.4628 2.7659 12.5111 3.11407 11.7814 3.76623L10.502 4.91431L9.22167 3.76719C8.49494 3.11733 7.5479 2.76879 6.57328 2.79249C5.59866 2.81618 4.66968 3.21033 3.97539 3.89474C3.28109 4.57914 2.87365 5.50237 2.83598 6.47655C2.7983 7.45073 3.13322 8.40267 3.77258 9.13865L10.5001 15.8767L17.2276 9.1396C17.8643 8.40687 18.1992 7.45988 18.1649 6.48979C18.1306 5.5197 17.7295 4.59875 17.0426 3.91285Z" fill="#586474"/>
</svg>
