<svg width="39" height="40" viewBox="0 0 39 40" fill="none" xmlns="http://www.w3.org/2000/svg">
<g clip-path="url(#clip0_130_61)">
<g clip-path="url(#clip1_130_61)">
<path d="M29.4288 36.255C28.4852 36.4679 27.4916 36.5853 26.4512 36.5853C20.8572 36.5853 14.7236 33.5202 10.047 28.3856C4.37683 22.1616 2.23494 14.3608 4.0459 8.61523C-0.216448 14.058 -1.10447 21.3401 1.51595 27.5713C1.73816 29.0376 2.18574 32.4914 1.658 33.644C1.658 33.644 4.38238 33.5967 6.81631 34.7414C13.2063 40.118 22.4103 40.7187 29.4288 36.255Z" fill="#E9DE2C"/>
<path d="M21.8975 33.3159L22.1808 33.3979C23.5989 33.8079 24.9861 34.016 26.3035 34.016C27.9327 34.016 29.4254 33.692 30.7428 33.0518C31.1816 32.8374 31.6276 32.5591 32.1054 32.202L32.4172 31.9694L22.5752 20.0093L21.8975 33.3159Z" fill="#E9DE2C"/>
<path d="M6.50977 16.5847L6.64626 17.1247C7.36446 19.9668 8.81196 22.8238 10.8348 25.3891L11.0705 25.6879L19.7484 18.5824L6.50977 16.5847Z" fill="#E9DE2C"/>
<path d="M15.4288 3.65405C14.2892 3.65405 13.1948 3.81961 12.1751 4.1452L11.6553 4.31312L21.2291 15.9461L21.7806 5.07782L21.5402 4.97691C19.4483 4.09947 17.3921 3.65405 15.4288 3.65405Z" fill="#E9DE2C"/>
<path d="M10.2425 5.02502L9.96002 5.21502C9.61005 5.45231 9.32832 5.66754 9.07755 5.89379C8.54585 6.36996 8.0816 6.92339 7.65862 7.58482C6.44046 9.48082 5.94209 11.9421 6.21905 14.7021L6.24683 14.9891L20.1711 17.09L10.2425 5.02502Z" fill="#E9DE2C"/>
<path d="M29.1954 10.3315C27.5511 8.62704 25.7417 7.20406 23.8228 6.1043L23.2943 5.80078L22.7705 16.1078L29.4723 10.62L29.1954 10.3315Z" fill="#E9DE2C"/>
<path d="M35.4639 22.4989C35.4131 22.1032 35.3353 21.6775 35.2266 21.1611L35.1726 20.9104L23.918 19.2123L33.5108 30.8713L33.7941 30.4795C35.2996 28.4029 35.8765 25.6437 35.4639 22.4989Z" fill="#E9DE2C"/>
<path d="M34.7224 19.2848L34.5113 18.7006C33.6693 16.3694 32.3972 14.1391 30.729 12.0721L30.4933 11.7788L23.4082 17.578L34.7224 19.2848Z" fill="#E9DE2C"/>
<path d="M12.3521 27.1439C14.5845 29.505 17.1874 31.379 19.8785 32.5639L20.3745 32.7822L21.049 19.5103L12.0791 26.8554L12.3521 27.1439Z" fill="#E9DE2C"/>
<path d="M26.4061 36.8865C20.7597 36.8865 14.5681 33.856 9.84551 28.7798C2.12075 20.4729 0.704195 9.24749 6.68704 3.75343C8.83052 1.78569 11.7025 0.74585 14.9927 0.74585C20.6399 0.74585 26.8306 3.77708 31.5517 8.85331C39.2788 17.1571 40.6962 28.3841 34.7117 33.8789C32.5675 35.8466 29.6955 36.8865 26.4061 36.8865ZM14.9935 2.03324C12.035 2.03324 9.46697 2.95561 7.56713 4.69946C2.10884 9.71104 3.55793 20.1221 10.7978 27.9055C15.28 32.7232 21.1144 35.5999 26.4061 35.5999C29.3646 35.5999 31.9318 34.6783 33.8317 32.9345C39.2907 27.9221 37.8416 17.511 30.6002 9.7276C26.1196 4.90916 20.2851 2.03324 14.9935 2.03324Z" fill="#E9DE2C"/>
</g>
</g>
<defs>
<clipPath id="clip0_130_61">
<rect width="38.3751" height="38.485" fill="white" transform="translate(0.0410156 0.74585)"/>
</clipPath>
<clipPath id="clip1_130_61">
<rect width="38.3751" height="38.485" fill="white" transform="translate(0.0410156 0.74585)"/>
</clipPath>
</defs>
</svg>
