<svg width="247" height="99" viewBox="0 0 247 99" fill="none" xmlns="http://www.w3.org/2000/svg">
<g clip-path="url(#clip0_1051_2)">
<g clip-path="url(#clip1_1051_2)">
<g clip-path="url(#clip2_1051_2)">
<g clip-path="url(#clip3_1051_2)">
<g clip-path="url(#clip4_1051_2)">
<g clip-path="url(#clip5_1051_2)">
<g clip-path="url(#clip6_1051_2)">
<path d="M121.129 46.3555H104.748V45.7303L105.561 45.5428C106.353 45.3339 106.978 44.9676 107.437 44.4424C107.896 43.926 108.124 43.2508 108.124 42.4168C108.124 40.8751 108.137 39.3408 108.162 37.8154C108.178 36.2986 108.187 34.7682 108.187 33.2264V17.5341H104.686V16.8464L106.061 16.5963C106.895 16.5125 107.499 16.2212 107.874 15.721C108.25 15.2209 108.521 14.5331 108.687 13.6579C109.104 12.0324 109.721 10.6032 110.538 9.36904C111.347 8.14366 112.272 7.00955 113.314 5.96798C114.898 4.46752 116.577 3.41344 118.353 2.8045C120.119 2.20431 121.857 1.90422 123.567 1.90422C125.234 1.90422 126.755 2.24558 128.131 2.92954C129.506 3.621 130.194 4.75886 130.194 6.3431C130.194 7.46845 129.86 8.35247 129.194 8.99392C128.527 9.64412 127.589 9.96922 126.38 9.96922C125.38 9.96922 124.463 9.69789 123.629 9.15647C122.795 8.61505 121.983 7.65601 121.191 6.28058L120.316 5.21775C119.857 4.63381 119.399 4.35123 118.94 4.36748C118.481 4.39249 118.149 4.73885 117.94 5.40531C117.649 6.86451 117.431 8.57254 117.29 10.5319C117.14 12.4913 117.065 14.4081 117.065 16.2837H124.067V17.5341H117.065V42.2918C117.065 43.876 117.899 44.8963 119.566 45.3552L121.129 45.7303V46.3555ZM142.26 46.3555H126.068V45.7303L127.005 45.4802C127.839 45.2302 128.415 44.8551 128.731 44.3549C129.04 43.8547 129.194 43.2083 129.194 42.4168V22.8482C129.194 21.9317 129.04 21.2515 128.731 20.8101C128.415 20.3762 127.839 20.0761 127.005 19.9098L126.068 19.6597V19.0345L136.821 15.4084L137.446 16.0336L138.009 21.4103V21.9104C138.593 20.7438 139.355 19.6685 140.297 18.6844C141.231 17.7091 142.273 16.9089 143.423 16.2837C144.565 15.6585 145.699 15.3459 146.824 15.3459C148.408 15.3459 149.616 15.7835 150.45 16.6588C151.284 17.5341 151.701 18.6382 151.701 19.9723C151.701 21.389 151.297 22.4819 150.488 23.2483C149.671 24.0236 148.7 24.4112 147.574 24.4112C145.824 24.4112 144.282 23.5359 142.948 21.7854L142.823 21.6604C142.406 21.0764 141.926 20.7513 141.385 20.685C140.843 20.6263 140.343 20.8889 139.884 21.4728C139.468 21.8479 139.125 22.298 138.859 22.8232C138.584 23.3396 138.321 23.9323 138.071 24.5988V42.0417C138.071 43.7084 138.8 44.7513 140.259 45.1676L142.26 45.7303V46.3555ZM169.331 15.3459C172.041 15.3459 174.354 15.8961 176.271 16.9964C178.187 18.1055 179.659 19.606 180.685 21.4978C181.701 23.3984 182.21 25.5578 182.21 27.9748C182.21 28.4337 182.189 28.9001 182.147 29.3752C182.106 29.8591 182.022 30.288 181.897 30.6631H163.267C163.308 35.1645 164.113 38.403 165.68 40.3787C167.239 42.363 169.56 43.3546 172.645 43.3546C174.729 43.3546 176.417 43.0207 177.709 42.3543C179 41.6878 180.209 40.7075 181.335 39.4159L181.96 39.9785C180.668 42.2705 178.95 44.0636 176.808 45.3552C174.658 46.6469 172.082 47.2933 169.081 47.2933C166.121 47.2933 163.495 46.6556 161.203 45.3802C158.911 44.1136 157.118 42.2918 155.827 39.916C154.535 37.5403 153.889 34.7056 153.889 31.4134C153.889 27.9961 154.639 25.0864 156.139 22.6857C157.64 20.2937 159.569 18.4719 161.929 17.2215C164.279 15.9711 166.746 15.3459 169.331 15.3459ZM169.143 16.5963C167.934 16.5963 166.905 16.9589 166.055 17.6841C165.196 18.4181 164.529 19.7097 164.054 21.5603C163.57 23.4196 163.308 26.0367 163.267 29.4128H173.957C174.374 24.8701 174.207 21.5978 173.457 19.5972C172.707 17.5966 171.269 16.5963 169.143 16.5963ZM196.152 47.2933C194.11 47.2933 192.276 47.0557 190.65 46.5806C189.025 46.0967 187.524 45.5015 186.149 44.7925L186.211 37.3527H186.836L188.962 41.1039C189.879 42.7707 190.891 44.0085 192.001 44.8175C193.101 45.634 194.505 46.0429 196.214 46.0429C198.215 46.0429 199.832 45.5928 201.066 44.6925C202.291 43.801 202.904 42.6043 202.904 41.1039C202.904 39.7285 202.466 38.6031 201.591 37.7278C200.716 36.8526 199.09 36.0611 196.714 35.3521L194.089 34.5393C191.547 33.7891 189.546 32.6225 188.087 31.0383C186.628 29.454 185.899 27.5159 185.899 25.224C185.899 22.4731 186.983 20.1386 189.15 18.2218C191.317 16.3049 194.423 15.3459 198.465 15.3459C200.091 15.3459 201.625 15.5209 203.066 15.8711C204.501 16.2299 205.884 16.7626 207.218 17.4716L206.843 24.2236H206.217L204.029 20.3474C203.238 18.972 202.457 18.0005 201.691 17.434C200.916 16.8751 199.757 16.5963 198.215 16.5963C196.798 16.5963 195.464 16.9927 194.214 17.7841C192.963 18.5756 192.338 19.701 192.338 21.1602C192.338 22.5769 192.872 23.7022 193.939 24.5362C194.998 25.3703 196.568 26.1405 198.653 26.8495L201.466 27.6622C204.467 28.5787 206.614 29.8379 207.905 31.4384C209.197 33.0476 209.844 34.977 209.844 37.2277C209.844 40.2699 208.647 42.7081 206.255 44.5425C203.854 46.3768 200.487 47.2933 196.152 47.2933ZM227.411 46.3555H212.782V45.7303L213.532 45.4802C215.033 44.9801 215.783 43.9385 215.783 42.3543V8.96891C215.783 8.09364 215.637 7.44719 215.345 7.03081C215.054 6.61443 214.491 6.30183 213.657 6.09302L212.719 5.84294V5.21775L223.723 2.52941L224.723 3.09209L224.473 11.9073V19.7222C225.932 18.5131 227.508 17.4803 229.2 16.6213C230.884 15.771 232.747 15.3459 234.789 15.3459C237.498 15.3459 239.657 16.1174 241.266 17.6591C242.866 19.2008 243.667 21.5766 243.667 24.7863V42.4168C243.667 43.2508 243.833 43.9173 244.167 44.4174C244.501 44.9176 245.083 45.2927 245.917 45.5428L246.417 45.7303V46.3555H231.788V45.7303L232.538 45.5428C234.039 45.0426 234.789 43.9798 234.789 42.3543V22.7232C234.789 21.0564 234.51 19.9098 233.951 19.2846C233.385 18.6594 232.392 18.3468 230.975 18.3468C230.059 18.3468 229.058 18.5219 227.974 18.872C226.89 19.2308 225.786 19.8473 224.661 20.7226V42.4793C224.661 44.1048 225.411 45.1464 226.911 45.6053L227.411 45.7303V46.3555Z" fill="white"/>
<path d="M121.129 95.4958H104.748V94.8706L105.561 94.683C106.353 94.4742 106.978 94.1078 107.437 93.5827C107.896 93.0663 108.124 92.391 108.124 91.557C108.124 90.0153 108.137 88.4811 108.162 86.9556C108.178 85.4389 108.187 83.9084 108.187 82.3667V66.6743H104.686V65.9866L106.061 65.7365C106.895 65.6527 107.499 65.3614 107.874 64.8613C108.25 64.3611 108.521 63.6734 108.687 62.7981C109.104 61.1726 109.721 59.7434 110.538 58.5093C111.347 57.2839 112.272 56.1498 113.314 55.1082C114.898 53.6078 116.577 52.5537 118.353 51.9447C120.119 51.3446 121.857 51.0445 123.567 51.0445C125.234 51.0445 126.755 51.3858 128.131 52.0698C129.506 52.7612 130.194 53.8991 130.194 55.4833C130.194 56.6087 129.86 57.4927 129.194 58.1342C128.527 58.7844 127.589 59.1095 126.38 59.1095C125.38 59.1095 124.463 58.8381 123.629 58.2967C122.795 57.7553 121.983 56.7962 121.191 55.4208L120.316 54.358C119.857 53.7741 119.399 53.4915 118.94 53.5077C118.481 53.5327 118.149 53.8791 117.94 54.5455C117.649 56.0048 117.431 57.7128 117.29 59.6721C117.14 61.6315 117.065 63.5483 117.065 65.4239H124.067V66.6743H117.065V91.432C117.065 93.0162 117.899 94.0366 119.566 94.4954L121.129 94.8706V95.4958ZM133.57 61.2351C132.153 61.2351 130.957 60.785 129.981 59.8847C128.997 58.9932 128.506 57.8591 128.506 56.4837C128.506 55.067 128.997 53.9204 129.981 53.0451C130.957 52.1698 132.153 51.7322 133.57 51.7322C134.987 51.7322 136.174 52.1698 137.133 53.0451C138.093 53.9204 138.571 55.067 138.571 56.4837C138.571 57.8591 138.093 58.9932 137.133 59.8847C136.174 60.785 134.987 61.2351 133.57 61.2351ZM140.822 95.4958H126.193V94.8706L127.068 94.6205C127.902 94.3704 128.477 93.9953 128.793 93.4951C129.102 92.995 129.256 92.3285 129.256 91.4945V71.9259C129.256 71.0507 129.102 70.3917 128.793 69.9503C128.477 69.5164 127.902 69.2164 127.068 69.0501L126.193 68.8625V68.2373L137.634 64.5487L138.259 65.1738L138.071 74.0516V91.557C138.071 92.391 138.23 93.0575 138.546 93.5577C138.855 94.0578 139.405 94.4329 140.197 94.683L140.822 94.8706V95.4958ZM158.265 95.4958H143.573V94.8706L144.448 94.6205C145.907 94.2041 146.636 93.1825 146.636 91.557V71.9885C146.636 71.0719 146.49 70.3917 146.199 69.9503C145.907 69.5164 145.345 69.2164 144.511 69.0501L143.573 68.8V68.1748L154.264 64.5487L154.889 65.1738L155.389 68.925C156.848 67.6334 158.494 66.5705 160.328 65.7365C162.162 64.9025 163.976 64.4861 165.767 64.4861C168.518 64.4861 170.635 65.2364 172.119 66.7368C173.595 68.2373 174.333 70.5293 174.333 73.614V91.6196C174.333 93.2451 175.124 94.2666 176.708 94.683L177.271 94.8706V95.4958H162.516V94.8706L163.329 94.6205C164.788 94.1616 165.517 93.1413 165.517 91.557V71.6133C165.517 68.9463 164.183 67.6121 161.516 67.6121C159.682 67.6121 157.681 68.5286 155.514 70.363V91.6196C155.514 93.2451 156.243 94.2666 157.702 94.683L158.265 94.8706V95.4958ZM192.963 96.4335C190.504 96.4335 188.296 95.8796 186.336 94.7705C184.377 93.6702 182.826 91.9659 181.685 89.6564C180.534 87.3395 179.959 84.3673 179.959 80.7412C179.959 77.0738 180.606 74.0429 181.897 71.6509C183.189 69.2501 184.898 67.4533 187.024 66.2617C189.15 65.0776 191.463 64.4861 193.964 64.4861C195.423 64.4861 196.818 64.6324 198.152 64.9238C199.487 65.2151 200.674 65.6527 201.716 66.2367V58.1092C201.716 57.2339 201.582 56.5874 201.316 56.1711C201.041 55.7547 200.466 55.4621 199.59 55.2958L198.402 55.0457V54.4205L209.781 51.6697L210.469 52.2323L210.219 60.985V91.557C210.219 92.391 210.365 93.0663 210.656 93.5827C210.948 94.1078 211.49 94.4742 212.282 94.683L212.844 94.8706V95.4958L202.154 96.1835L201.591 93.9328C200.466 94.683 199.186 95.2869 197.752 95.7458C196.311 96.2047 194.714 96.4335 192.963 96.4335ZM196.589 94.1203C198.34 94.1203 199.944 93.5989 201.403 92.5573V67.7371C199.862 66.7368 198.277 66.2367 196.652 66.2367C194.651 66.2367 192.942 67.3908 191.525 69.7003C190.109 72.0172 189.4 75.6559 189.4 80.6161C189.4 85.5764 190.066 89.065 191.4 91.0819C192.734 93.1075 194.464 94.1203 196.589 94.1203ZM226.411 96.4335C224.369 96.4335 222.535 96.196 220.909 95.7208C219.284 95.2369 217.783 94.6417 216.408 93.9328L216.471 86.493H217.096L219.221 90.2441C220.138 91.9109 221.151 93.1488 222.26 93.9578C223.36 94.7743 224.764 95.1832 226.474 95.1832C228.474 95.1832 230.091 94.733 231.325 93.8327C232.551 92.9412 233.163 91.7446 233.163 90.2441C233.163 88.8687 232.726 87.7434 231.85 86.8681C230.975 85.9928 229.35 85.2013 226.974 84.4923L224.348 83.6796C221.806 82.9294 219.805 81.7627 218.346 80.1785C216.887 78.5943 216.158 76.6562 216.158 74.3642C216.158 71.6133 217.242 69.2789 219.409 67.362C221.576 65.4452 224.682 64.4861 228.724 64.4861C230.35 64.4861 231.879 64.6612 233.313 65.0113C234.755 65.3702 236.143 65.9028 237.477 66.6118L237.102 73.3639H236.477L234.289 69.4877C233.497 68.1123 232.717 67.1407 231.95 66.5743C231.175 66.0154 230.016 65.7365 228.474 65.7365C227.058 65.7365 225.723 66.1329 224.473 66.9244C223.223 67.7159 222.597 68.8412 222.597 70.3004C222.597 71.7171 223.131 72.8425 224.198 73.6765C225.257 74.5105 226.828 75.2807 228.912 75.9897L231.725 76.8025C234.726 77.719 236.873 78.9781 238.165 80.5786C239.456 82.1879 240.103 84.1172 240.103 86.3679C240.103 89.4101 238.903 91.8484 236.502 93.6827C234.11 95.517 230.746 96.4335 226.411 96.4335Z" fill="white"/>
</g>
</g>
</g>
</g>
<g clip-path="url(#clip7_1051_2)">
<g clip-path="url(#clip8_1051_2)">
<path d="M72.0213 89.1596C69.7169 89.6829 67.2903 89.9717 64.7494 89.9717C51.0876 89.9717 36.1077 82.4362 24.6863 69.8132C10.8384 54.5116 5.60737 35.3338 10.0302 21.2087C-0.37952 34.5896 -2.54829 52.4921 3.85142 67.8111C4.3941 71.416 5.4872 79.907 4.19835 82.7405C4.19835 82.7405 10.852 82.6242 16.7962 85.4384C32.402 98.6564 54.8805 100.133 72.0213 89.1596Z" fill="white"/>
<path d="M53.6265 81.9342L54.3184 82.1358C57.7818 83.1436 61.1697 83.6553 64.387 83.6553C68.366 83.6553 72.0116 82.8587 75.2289 81.285C76.3007 80.7578 77.3899 80.0736 78.5566 79.1957L79.3183 78.6239L55.2816 49.2205L53.6265 81.9342Z" fill="white"/>
<path d="M16.0461 40.8013L16.3795 42.1289C18.1335 49.1159 21.6687 56.1396 26.609 62.4463L27.1846 63.1809L48.3781 45.7125L16.0461 40.8013Z" fill="white"/>
<path d="M37.8288 9.01204C35.0457 9.01204 32.373 9.41905 29.8825 10.2195L28.613 10.6323L51.9946 39.2314L53.3416 12.5123L52.7544 12.2642C47.6455 10.1071 42.6238 9.01204 37.8288 9.01204Z" fill="white"/>
<path d="M25.1631 12.3824L24.4731 12.8495C23.6184 13.4329 22.9304 13.962 22.3179 14.5183C21.0194 15.6889 19.8856 17.0495 18.8526 18.6756C15.8775 23.3368 14.6604 29.3876 15.3368 36.173L15.4046 36.8785L49.4111 42.0436L25.1631 12.3824Z" fill="white"/>
<path d="M71.4495 25.428C67.4337 21.2378 63.0148 17.7394 58.3284 15.0357L57.0376 14.2896L55.7584 39.6287L72.1259 26.1374L71.4495 25.428Z" fill="white"/>
<path d="M86.7609 55.3411C86.6368 54.3682 86.4469 53.3216 86.1814 52.0521L86.0496 51.4358L58.563 47.261L81.9911 75.9241L82.683 74.9608C86.3597 69.8558 87.7687 63.0723 86.7609 55.3411Z" fill="white"/>
<path d="M84.9486 47.4394L84.433 46.0032C82.3767 40.2722 79.2699 34.7892 75.1959 29.7074L74.6203 28.9864L57.3167 43.2433L84.9486 47.4394Z" fill="white"/>
<path d="M30.3147 66.7606C35.7666 72.5653 42.1237 77.1723 48.6959 80.0853L49.9072 80.6221L51.5546 47.9937L29.6479 66.0513L30.3147 66.7606Z" fill="white"/>
<path d="M64.6389 90.712C50.8491 90.712 35.7278 83.2619 24.194 70.7822C5.32825 50.3601 1.86869 22.7631 16.4803 9.25625C21.7152 4.41867 28.7293 1.86227 36.7647 1.86227C50.5565 1.86227 65.6759 9.31439 77.2058 21.794C96.0774 42.2084 99.5389 69.8093 84.9234 83.3181C79.6866 88.1556 72.6725 90.712 64.6389 90.712ZM36.7667 5.02724C29.5413 5.02724 23.2695 7.29486 18.6296 11.582C5.29918 23.9027 8.83821 49.4977 26.5198 68.6328C37.4663 80.4768 51.7155 87.549 64.6389 87.549C71.8643 87.549 78.1342 85.2833 82.774 80.9962C96.1065 68.6736 92.5674 43.0786 74.882 23.9434C63.9393 12.0975 49.6901 5.02724 36.7667 5.02724Z" fill="white"/>
</g>
</g>
</g>
</g>
</g>
<defs>
<clipPath id="clip0_1051_2">
<rect width="246.667" height="98.3378" fill="white"/>
</clipPath>
<clipPath id="clip1_1051_2">
<rect width="246.168" height="98.2805" fill="white" transform="translate(0.249268 0.0286407)"/>
</clipPath>
<clipPath id="clip2_1051_2">
<rect width="246.168" height="98.2805" fill="white" transform="translate(0.249268 0.0286407)"/>
</clipPath>
<clipPath id="clip3_1051_2">
<rect width="141.731" height="98.2805" fill="white" transform="translate(104.686 0.0286407)"/>
</clipPath>
<clipPath id="clip4_1051_2">
<rect width="141.731" height="98.2805" fill="white" transform="translate(104.686 0.0286407)"/>
</clipPath>
<clipPath id="clip5_1051_2">
<rect width="141.731" height="98.2805" fill="white" transform="translate(104.686 0.0286407)"/>
</clipPath>
<clipPath id="clip6_1051_2">
<rect width="141.731" height="98.2805" fill="white" transform="translate(104.686 0.0286407)"/>
</clipPath>
<clipPath id="clip7_1051_2">
<rect width="93.7214" height="94.6132" fill="white" transform="translate(0.249268 1.86227)"/>
</clipPath>
<clipPath id="clip8_1051_2">
<rect width="93.7214" height="94.6132" fill="white" transform="translate(0.249268 1.86227)"/>
</clipPath>
</defs>
</svg>
