<svg width="248" height="100" viewBox="0 0 248 100" fill="none" xmlns="http://www.w3.org/2000/svg">
<g clip-path="url(#clip0_924_4)">
<g clip-path="url(#clip1_924_4)">
<g clip-path="url(#clip2_924_4)">
<g clip-path="url(#clip3_924_4)">
<g clip-path="url(#clip4_924_4)">
<g clip-path="url(#clip5_924_4)">
<g clip-path="url(#clip6_924_4)">
<path d="M121.646 47.158H105.266V46.5328L106.078 46.3453C106.87 46.1364 107.495 45.7701 107.954 45.2449C108.413 44.7285 108.642 44.0533 108.642 43.2193C108.642 41.6776 108.654 40.1433 108.679 38.6179C108.695 37.1011 108.704 35.5707 108.704 34.0289V18.3366H105.203V17.6488L106.578 17.3988C107.412 17.315 108.016 17.0237 108.392 16.5235C108.767 16.0233 109.038 15.3356 109.204 14.4604C109.621 12.8349 110.238 11.4057 111.055 10.1715C111.864 8.94615 112.789 7.81205 113.831 6.77047C115.415 5.27001 117.094 4.21593 118.87 3.60699C120.637 3.0068 122.375 2.70671 124.084 2.70671C125.751 2.70671 127.272 3.04807 128.648 3.73203C130.023 4.42349 130.711 5.56135 130.711 7.14559C130.711 8.27094 130.377 9.15496 129.711 9.79641C129.044 10.4466 128.106 10.7717 126.897 10.7717C125.897 10.7717 124.98 10.5004 124.146 9.95896C123.312 9.41754 122.5 8.4585 121.708 7.08307L120.833 6.02024C120.374 5.43631 119.916 5.15372 119.457 5.16997C118.999 5.19498 118.666 5.54134 118.457 6.2078C118.166 7.667 117.948 9.37503 117.807 11.3344C117.657 13.2937 117.582 15.2106 117.582 17.0862H124.584V18.3366H117.582V43.0942C117.582 44.6785 118.416 45.6988 120.083 46.1577L121.646 46.5328V47.158ZM142.777 47.158H126.585V46.5328L127.522 46.2827C128.356 46.0327 128.932 45.6575 129.248 45.1574C129.557 44.6572 129.711 44.0108 129.711 43.2193V23.6507C129.711 22.7342 129.557 22.054 129.248 21.6126C128.932 21.1787 128.356 20.8786 127.522 20.7123L126.585 20.4622V19.837L137.338 16.2109L137.963 16.8361L138.526 22.2128V22.7129C139.11 21.5463 139.873 20.471 140.814 19.4869C141.748 18.5116 142.79 17.7114 143.94 17.0862C145.082 16.461 146.216 16.1484 147.341 16.1484C148.925 16.1484 150.133 16.586 150.967 17.4613C151.801 18.3366 152.218 19.4407 152.218 20.7748C152.218 22.1915 151.814 23.2843 151.005 24.0508C150.188 24.8261 149.217 25.2137 148.091 25.2137C146.341 25.2137 144.799 24.3384 143.465 22.5879L143.34 22.4628C142.924 21.8789 142.443 21.5538 141.902 21.4875C141.361 21.4288 140.86 21.6914 140.401 22.2753C139.985 22.6504 139.642 23.1005 139.376 23.6257C139.101 24.1421 138.838 24.7348 138.588 25.4013V42.8442C138.588 44.5109 139.317 45.5538 140.777 45.9701L142.777 46.5328V47.158ZM169.848 16.1484C172.558 16.1484 174.871 16.6986 176.788 17.7989C178.705 18.908 180.176 20.4085 181.202 22.3003C182.218 24.2009 182.727 26.3603 182.727 28.7773C182.727 29.2362 182.706 29.7026 182.665 30.1777C182.623 30.6616 182.54 31.0905 182.415 31.4656H163.784C163.825 35.967 164.63 39.2055 166.197 41.1811C167.756 43.1655 170.077 44.1571 173.162 44.1571C175.246 44.1571 176.934 43.8232 178.226 43.1568C179.517 42.4903 180.726 41.51 181.852 40.2184L182.477 40.781C181.185 43.073 179.467 44.866 177.325 46.1577C175.175 47.4493 172.599 48.0958 169.598 48.0958C166.638 48.0958 164.013 47.4581 161.721 46.1827C159.429 44.9161 157.636 43.0942 156.344 40.7185C155.052 38.3428 154.406 35.5081 154.406 32.2159C154.406 28.7986 155.156 25.8889 156.657 23.4882C158.157 21.0962 160.086 19.2744 162.446 18.024C164.797 16.7736 167.264 16.1484 169.848 16.1484ZM169.661 17.3988C168.451 17.3988 167.422 17.7614 166.572 18.4866C165.713 19.2206 165.047 20.5122 164.571 22.3628C164.088 24.2221 163.825 26.8392 163.784 30.2152H174.475C174.891 25.6726 174.725 22.4003 173.974 20.3997C173.224 18.3991 171.786 17.3988 169.661 17.3988ZM196.669 48.0958C194.627 48.0958 192.793 47.8582 191.167 47.3831C189.542 46.8992 188.041 46.304 186.666 45.595L186.728 38.1552H187.354L189.479 41.9064C190.396 43.5731 191.409 44.811 192.518 45.62C193.618 46.4365 195.022 46.8454 196.731 46.8454C198.732 46.8454 200.349 46.3953 201.583 45.495C202.808 44.6035 203.421 43.4068 203.421 41.9064C203.421 40.5309 202.983 39.4056 202.108 38.5303C201.233 37.6551 199.607 36.8636 197.232 36.1546L194.606 35.3418C192.064 34.5916 190.063 33.425 188.604 31.8408C187.145 30.2565 186.416 28.3184 186.416 26.0264C186.416 23.2756 187.5 20.9411 189.667 19.0243C191.834 17.1074 194.94 16.1484 198.982 16.1484C200.608 16.1484 202.142 16.3234 203.584 16.6735C205.018 17.0324 206.401 17.5651 207.735 18.274L207.36 25.0261H206.735L204.546 21.1499C203.755 19.7745 202.975 18.803 202.208 18.2365C201.433 17.6776 200.274 17.3988 198.732 17.3988C197.315 17.3988 195.981 17.7951 194.731 18.5866C193.48 19.3781 192.855 20.5035 192.855 21.9627C192.855 23.3794 193.389 24.5047 194.456 25.3387C195.515 26.1727 197.085 26.943 199.17 27.652L201.983 28.4647C204.984 29.3812 207.131 30.6404 208.423 32.2409C209.714 33.8501 210.361 35.7795 210.361 38.0302C210.361 41.0724 209.164 43.5106 206.772 45.3449C204.371 47.1793 201.004 48.0958 196.669 48.0958ZM227.929 47.158H213.299V46.5328L214.049 46.2827C215.55 45.7826 216.3 44.741 216.3 43.1568V9.7714C216.3 8.89613 216.154 8.24968 215.862 7.8333C215.571 7.41692 215.008 7.10432 214.174 6.89551L213.237 6.64543V6.02024L224.24 3.3319L225.24 3.89458L224.99 12.7098V20.5247C226.449 19.3156 228.025 18.2828 229.717 17.4238C231.401 16.5735 233.264 16.1484 235.306 16.1484C238.016 16.1484 240.174 16.9199 241.783 18.4616C243.383 20.0033 244.184 22.3791 244.184 25.5888V43.2193C244.184 44.0533 244.35 44.7197 244.684 45.2199C245.018 45.7201 245.6 46.0952 246.434 46.3453L246.935 46.5328V47.158H232.305V46.5328L233.055 46.3453C234.556 45.8451 235.306 44.7823 235.306 43.1568V23.5257C235.306 21.8589 235.027 20.7123 234.468 20.0871C233.902 19.4619 232.909 19.1493 231.492 19.1493C230.576 19.1493 229.575 19.3244 228.491 19.6745C227.407 20.0333 226.303 20.6498 225.178 21.525V43.2818C225.178 44.9073 225.928 45.9489 227.428 46.4078L227.929 46.5328V47.158Z" fill="white"/>
<path d="M121.646 96.2983H105.266V95.6731L106.078 95.4855C106.87 95.2767 107.495 94.9103 107.954 94.3852C108.413 93.8688 108.642 93.1935 108.642 92.3595C108.642 90.8178 108.654 89.2836 108.679 87.7581C108.695 86.2414 108.704 84.7109 108.704 83.1692V67.4768H105.203V66.7891L106.578 66.539C107.412 66.4553 108.016 66.1639 108.392 65.6638C108.767 65.1636 109.038 64.4759 109.204 63.6006C109.621 61.9751 110.238 60.5459 111.055 59.3118C111.864 58.0864 112.789 56.9523 113.831 55.9107C115.415 54.4103 117.094 53.3562 118.87 52.7472C120.637 52.1471 122.375 51.847 124.084 51.847C125.751 51.847 127.272 52.1883 128.648 52.8723C130.023 53.5638 130.711 54.7016 130.711 56.2858C130.711 57.4112 130.377 58.2952 129.711 58.9367C129.044 59.5869 128.106 59.912 126.897 59.912C125.897 59.912 124.98 59.6406 124.146 59.0992C123.312 58.5578 122.5 57.5988 121.708 56.2233L120.833 55.1605C120.374 54.5766 119.916 54.294 119.457 54.3102C118.999 54.3352 118.666 54.6816 118.457 55.3481C118.166 56.8073 117.948 58.5153 117.807 60.4746C117.657 62.434 117.582 64.3508 117.582 66.2264H124.584V67.4768H117.582V92.2345C117.582 93.8187 118.416 94.8391 120.083 95.298L121.646 95.6731V96.2983ZM134.087 62.0376C132.67 62.0376 131.474 61.5875 130.498 60.6872C129.514 59.7957 129.023 58.6616 129.023 57.2862C129.023 55.8695 129.514 54.7229 130.498 53.8476C131.474 52.9723 132.67 52.5347 134.087 52.5347C135.504 52.5347 136.692 52.9723 137.651 53.8476C138.61 54.7229 139.089 55.8695 139.089 57.2862C139.089 58.6616 138.61 59.7957 137.651 60.6872C136.692 61.5875 135.504 62.0376 134.087 62.0376ZM141.339 96.2983H126.71V95.6731L127.585 95.423C128.419 95.1729 128.994 94.7978 129.311 94.2976C129.619 93.7975 129.773 93.131 129.773 92.297V72.7284C129.773 71.8532 129.619 71.1942 129.311 70.7528C128.994 70.319 128.419 70.0189 127.585 69.8526L126.71 69.665V69.0398L138.151 65.3512L138.776 65.9764L138.588 74.8541V92.3595C138.588 93.1935 138.747 93.86 139.064 94.3602C139.372 94.8603 139.923 95.2354 140.714 95.4855L141.339 95.6731V96.2983ZM158.782 96.2983H144.09V95.6731L144.965 95.423C146.425 95.0066 147.154 93.985 147.154 92.3595V72.791C147.154 71.8744 147.007 71.1942 146.716 70.7528C146.425 70.319 145.862 70.0189 145.028 69.8526L144.09 69.6025V68.9773L154.781 65.3512L155.406 65.9764L155.906 69.7275C157.365 68.4359 159.011 67.373 160.845 66.539C162.68 65.705 164.493 65.2886 166.284 65.2886C169.035 65.2886 171.152 66.0389 172.636 67.5393C174.112 69.0398 174.85 71.3318 174.85 74.4165V92.4221C174.85 94.0476 175.641 95.0691 177.225 95.4855L177.788 95.6731V96.2983H163.033V95.6731L163.846 95.423C165.305 94.9641 166.034 93.9438 166.034 92.3595V72.4159C166.034 69.7488 164.7 68.4146 162.033 68.4146C160.199 68.4146 158.198 69.3311 156.031 71.1655V92.4221C156.031 94.0476 156.76 95.0691 158.219 95.4855L158.782 95.6731V96.2983ZM193.48 97.2361C191.021 97.2361 188.813 96.6821 186.853 95.573C184.894 94.4727 183.344 92.7684 182.202 90.459C181.052 88.142 180.476 85.1698 180.476 81.5437C180.476 77.8763 181.123 74.8454 182.414 72.4534C183.706 70.0526 185.415 68.2558 187.541 67.0642C189.667 65.8801 191.98 65.2886 194.481 65.2886C195.94 65.2886 197.335 65.4349 198.67 65.7263C200.004 66.0176 201.192 66.4553 202.233 67.0392V58.9117C202.233 58.0364 202.099 57.3899 201.833 56.9736C201.558 56.5572 200.983 56.2646 200.107 56.0983L198.92 55.8482V55.223L210.298 52.4722L210.986 53.0348L210.736 61.7876V92.3595C210.736 93.1935 210.882 93.8688 211.173 94.3852C211.465 94.9103 212.007 95.2767 212.799 95.4855L213.362 95.6731V96.2983L202.671 96.986L202.108 94.7353C200.983 95.4855 199.704 96.0894 198.269 96.5483C196.828 97.0072 195.231 97.2361 193.48 97.2361ZM197.107 94.9228C198.857 94.9228 200.461 94.4014 201.921 93.3599V68.5396C200.379 67.5393 198.795 67.0392 197.169 67.0392C195.168 67.0392 193.459 68.1933 192.042 70.5028C190.626 72.8197 189.917 76.4584 189.917 81.4186C189.917 86.3789 190.583 89.8675 191.917 91.8844C193.252 93.91 194.981 94.9228 197.107 94.9228ZM226.928 97.2361C224.886 97.2361 223.052 96.9985 221.427 96.5233C219.801 96.0394 218.301 95.4442 216.925 94.7353L216.988 87.2955H217.613L219.739 91.0466C220.655 92.7134 221.668 93.9513 222.777 94.7603C223.877 95.5768 225.282 95.9857 226.991 95.9857C228.991 95.9857 230.608 95.5355 231.842 94.6352C233.068 93.7437 233.68 92.5471 233.68 91.0466C233.68 89.6712 233.243 88.5459 232.367 87.6706C231.492 86.7953 229.867 86.0038 227.491 85.2948L224.865 84.4821C222.323 83.7319 220.322 82.5653 218.863 80.981C217.404 79.3968 216.675 77.4587 216.675 75.1667C216.675 72.4159 217.759 70.0814 219.926 68.1645C222.093 66.2477 225.199 65.2886 229.242 65.2886C230.867 65.2886 232.396 65.4637 233.83 65.8138C235.272 66.1727 236.66 66.7053 237.994 67.4143L237.619 74.1664H236.994L234.806 70.2902C234.014 68.9148 233.234 67.9432 232.468 67.3768C231.692 66.8179 230.533 66.539 228.991 66.539C227.575 66.539 226.241 66.9354 224.99 67.7269C223.74 68.5184 223.115 69.6437 223.115 71.1029C223.115 72.5196 223.649 73.645 224.715 74.479C225.774 75.313 227.345 76.0832 229.429 76.7922L232.242 77.605C235.243 78.5215 237.39 79.7806 238.682 81.3811C239.974 82.9904 240.62 84.9197 240.62 87.1704C240.62 90.2126 239.42 92.6509 237.019 94.4852C234.627 96.3195 231.263 97.2361 226.928 97.2361Z" fill="white"/>
</g>
</g>
</g>
</g>
<g clip-path="url(#clip7_924_4)">
<g clip-path="url(#clip8_924_4)">
<path d="M72.5385 89.9621C70.2341 90.4854 67.8075 90.7742 65.2666 90.7742C51.6047 90.7742 36.6249 83.2387 25.2035 70.6157C11.3556 55.3141 6.12455 36.1363 10.5474 22.0112C0.137661 35.3921 -2.03111 53.2946 4.3686 68.6136C4.91128 72.2185 6.00438 80.7094 4.71553 83.543C4.71553 83.543 11.3691 83.4267 17.3134 86.2409C32.9192 99.4589 55.3977 100.936 72.5385 89.9621Z" fill="#E9DE2C"/>
<path d="M54.1437 82.7367L54.8356 82.9383C58.299 83.9461 61.6869 84.4578 64.9042 84.4578C68.8832 84.4578 72.5288 83.6612 75.7461 82.0875C76.8179 81.5603 77.9071 80.8761 79.0739 79.9982L79.8356 79.4264L55.7989 50.023L54.1437 82.7367Z" fill="#E9DE2C"/>
<path d="M16.5633 41.6038L16.8967 42.9314C18.6507 49.9184 22.1858 56.9421 27.1261 63.2488L27.7018 63.9834L48.8952 46.515L16.5633 41.6038Z" fill="#E9DE2C"/>
<path d="M38.346 9.81454C35.5628 9.81454 32.8901 10.2215 30.3996 11.022L29.1302 11.4348L52.5118 40.0339L53.8588 13.3148L53.2715 13.0667C48.1626 10.9096 43.1409 9.81454 38.346 9.81454Z" fill="#E9DE2C"/>
<path d="M25.6803 13.185L24.9903 13.652C24.1356 14.2354 23.4476 14.7645 22.8351 15.3208C21.5366 16.4914 20.4028 17.852 19.3697 19.4781C16.3947 24.1393 15.1776 30.1901 15.854 36.9755L15.9218 37.681L49.9283 42.8461L25.6803 13.185Z" fill="#E9DE2C"/>
<path d="M71.9667 26.2305C67.9509 22.0403 63.532 18.5419 58.8456 15.8383L57.5548 15.0921L56.2756 40.4312L72.6432 26.9399L71.9667 26.2305Z" fill="#E9DE2C"/>
<path d="M87.278 56.1436C87.1539 55.1707 86.964 54.1241 86.6985 52.8546L86.5667 52.2383L59.0801 48.0636L82.5082 76.7266L83.2002 75.7633C86.8768 70.6583 88.2858 63.8748 87.278 56.1436Z" fill="#E9DE2C"/>
<path d="M85.4658 48.2419L84.9503 46.8057C82.8939 41.0747 79.7871 35.5917 75.7132 30.5099L75.1375 29.7889L57.8339 44.0458L85.4658 48.2419Z" fill="#E9DE2C"/>
<path d="M30.8318 67.5631C36.2838 73.3678 42.6409 77.9747 49.2131 80.8878L50.4244 81.4246L52.0718 48.7962L30.1651 66.8537L30.8318 67.5631Z" fill="#E9DE2C"/>
<path d="M65.1562 91.5145C51.3664 91.5145 36.2451 84.0644 24.7112 71.5847C5.84546 51.1626 2.3859 23.5656 16.9975 10.0587C22.2324 5.22116 29.2465 2.66476 37.282 2.66476C51.0737 2.66476 66.1931 10.1169 77.723 22.5965C96.5946 43.0109 100.056 70.6118 85.4406 84.1206C80.2038 88.9581 73.1897 91.5145 65.1562 91.5145ZM37.2839 5.82973C30.0585 5.82973 23.7867 8.09735 19.1469 12.3845C5.81639 24.7052 9.35542 50.3002 27.037 69.4353C37.9836 81.2793 52.2327 88.3515 65.1562 88.3515C72.3815 88.3515 78.6514 86.0858 83.2913 81.7987C96.6237 69.476 93.0846 43.8811 75.3992 24.7459C64.4565 12.9 50.2074 5.82973 37.2839 5.82973Z" fill="#E9DE2C"/>
</g>
</g>
</g>
</g>
</g>
<defs>
<clipPath id="clip0_924_4">
<rect width="246.667" height="98.3378" fill="white" transform="translate(0.517151 0.80249)"/>
</clipPath>
<clipPath id="clip1_924_4">
<rect width="246.168" height="98.2805" fill="white" transform="translate(0.766449 0.831131)"/>
</clipPath>
<clipPath id="clip2_924_4">
<rect width="246.168" height="98.2805" fill="white" transform="translate(0.766449 0.831131)"/>
</clipPath>
<clipPath id="clip3_924_4">
<rect width="141.731" height="98.2805" fill="white" transform="translate(105.203 0.831131)"/>
</clipPath>
<clipPath id="clip4_924_4">
<rect width="141.731" height="98.2805" fill="white" transform="translate(105.203 0.831131)"/>
</clipPath>
<clipPath id="clip5_924_4">
<rect width="141.731" height="98.2805" fill="white" transform="translate(105.203 0.831131)"/>
</clipPath>
<clipPath id="clip6_924_4">
<rect width="141.731" height="98.2805" fill="white" transform="translate(105.203 0.831131)"/>
</clipPath>
<clipPath id="clip7_924_4">
<rect width="93.7214" height="94.6132" fill="white" transform="translate(0.766449 2.66476)"/>
</clipPath>
<clipPath id="clip8_924_4">
<rect width="93.7214" height="94.6132" fill="white" transform="translate(0.766449 2.66476)"/>
</clipPath>
</defs>
</svg>
