<svg width="24" height="8" viewBox="0 0 24 8" fill="none" xmlns="http://www.w3.org/2000/svg">
<path d="M21.9766 7.78501C22.0911 7.85368 22.2258 7.90737 22.373 7.94301C22.5202 7.97864 22.677 7.99553 22.8344 7.9927C22.9919 7.98987 23.147 7.96739 23.2907 7.92653C23.4345 7.88567 23.5642 7.82724 23.6724 7.75456C23.7806 7.68189 23.8652 7.5964 23.9213 7.50298C23.9775 7.40956 24.0041 7.31004 23.9996 7.21009C23.9952 7.11014 23.9598 7.01173 23.8954 6.92048C23.831 6.82922 23.7389 6.7469 23.6244 6.67823L12.8308 0.208063C12.6081 0.0744456 12.3133 -4.20634e-06 12.0069 -4.21973e-06C11.7004 -4.23313e-06 11.4056 0.0744455 11.1829 0.208063L0.388078 6.67823C0.271074 6.74645 0.17659 6.82875 0.110119 6.92034C0.0436491 7.01193 0.00651546 7.11099 0.00087417 7.21177C-0.00476712 7.31255 0.0211986 7.41304 0.0772602 7.50739C0.133322 7.60175 0.218363 7.68809 0.327444 7.76141C0.436526 7.83473 0.567473 7.89356 0.71268 7.93449C0.857887 7.97541 1.01446 7.99762 1.1733 7.99982C1.33214 8.00201 1.49009 7.98415 1.63797 7.94728C1.78585 7.9104 1.9207 7.85524 2.03471 7.78501L12.0069 1.8081L21.9766 7.78501Z" fill="#343538"/>
</svg>
