<svg width="18" height="18" viewBox="0 0 18 18" fill="none" xmlns="http://www.w3.org/2000/svg">
<path fill-rule="evenodd" clip-rule="evenodd" d="M17.5638 2.06405C17.6707 1.95728 17.7555 1.83051 17.8134 1.69096C17.8713 1.55142 17.9012 1.40183 17.9013 1.25075C17.9014 1.09967 17.8717 0.950053 17.814 0.810437C17.7562 0.670821 17.6716 0.543943 17.5648 0.437047C17.458 0.330151 17.3313 0.24533 17.1917 0.187428C17.0522 0.129527 16.9026 0.099677 16.7515 0.0995841C16.6004 0.0994912 16.4508 0.129157 16.3112 0.186887C16.1716 0.244618 16.0447 0.329282 15.9378 0.436047L8.9998 7.37405L2.0638 0.436047C1.84792 0.22016 1.55511 0.098877 1.2498 0.098877C0.944493 0.098877 0.651689 0.22016 0.435802 0.436047C0.219916 0.651933 0.0986328 0.944738 0.0986328 1.25005C0.0986328 1.55536 0.219916 1.84816 0.435802 2.06405L7.3738 9.00005L0.435802 15.936C0.328906 16.0429 0.244112 16.1698 0.18626 16.3095C0.128409 16.4492 0.0986328 16.5989 0.0986328 16.75C0.0986328 16.9012 0.128409 17.0509 0.18626 17.1906C0.244112 17.3302 0.328906 17.4571 0.435802 17.564C0.651689 17.7799 0.944493 17.9012 1.2498 17.9012C1.40098 17.9012 1.55067 17.8714 1.69034 17.8136C1.83 17.7557 1.95691 17.6709 2.0638 17.564L8.9998 10.626L15.9378 17.564C16.1537 17.7797 16.4464 17.9007 16.7515 17.9005C17.0566 17.9003 17.3492 17.7789 17.5648 17.563C17.7804 17.3472 17.9015 17.0545 17.9013 16.7493C17.9011 16.4442 17.7797 16.1517 17.5638 15.936L10.6258 9.00005L17.5638 2.06405Z" fill="white"/>
</svg>
