<svg
                            width="20"
                            height="21"
                            viewBox="0 0 20 21"
                            fill="none"
                            xmlns="http://www.w3.org/2000/svg"
                        >
                            <path
                                d="M16.6667 5.49992H3.33333V3.83325H16.6667V5.49992ZM10.8333 13.4166C10.8333 14.3666 11.1917 15.3833 11.6667 16.3333V17.1666H3.33333V12.1666H2.5V10.4999L3.33333 6.33325H16.6667L17.25 9.24992C16.6667 8.98325 16.0667 8.83325 15.4167 8.83325C12.9167 8.83325 10.8333 10.9166 10.8333 13.4166ZM10 12.1666H5V15.4999H10V12.1666ZM18.3333 13.4166C18.3333 15.5833 15.4167 18.8333 15.4167 18.8333C15.4167 18.8333 12.5 15.5833 12.5 13.4166C12.5 11.8333 13.8333 10.4999 15.4167 10.4999C17 10.4999 18.3333 11.8333 18.3333 13.4166ZM16.4167 13.4999C16.4167 12.9999 15.9167 12.4999 15.4167 12.4999C14.9167 12.4999 14.4167 12.9166 14.4167 13.4999C14.4167 13.9999 14.8333 14.4999 15.4167 14.4999C16 14.4999 16.5 13.9999 16.4167 13.4999Z"
                                fill="white"
                            />
                        </svg>