<svg width="91" height="36" viewBox="0 0 91 36" fill="none" xmlns="http://www.w3.org/2000/svg">
<g clip-path="url(#clip0_470_3)">
<g clip-path="url(#clip1_470_3)">
<g clip-path="url(#clip2_470_3)">
<g clip-path="url(#clip3_470_3)">
<g clip-path="url(#clip4_470_3)">
<g clip-path="url(#clip5_470_3)">
<g clip-path="url(#clip6_470_3)">
<path d="M44.3124 16.9596H38.3127V16.7307L38.6104 16.662C38.9003 16.5856 39.1293 16.4515 39.2974 16.2592C39.4655 16.0702 39.5493 15.823 39.5493 15.5177C39.5493 14.9533 39.5539 14.3916 39.563 13.8332C39.569 13.2779 39.5722 12.7176 39.5722 12.1532V6.40848H38.2898V6.15671L38.7936 6.06517C39.0991 6.0345 39.3203 5.92784 39.4577 5.74474C39.5951 5.56164 39.6945 5.30988 39.7554 4.98946C39.9079 4.39438 40.1341 3.87118 40.4332 3.41938C40.7295 2.97079 41.0684 2.55561 41.45 2.1743C42.0302 1.62501 42.6453 1.23912 43.2957 1.0162C43.9428 0.796481 44.5794 0.686623 45.2055 0.686623C45.816 0.686623 46.3734 0.811588 46.8772 1.06198C47.381 1.31511 47.6329 1.73166 47.6329 2.31163C47.6329 2.7236 47.5106 3.04723 47.2665 3.28206C47.0224 3.52008 46.6789 3.6391 46.236 3.6391C45.8696 3.6391 45.5339 3.53977 45.2284 3.34156C44.9229 3.14336 44.6252 2.79227 44.3353 2.28874L44.0147 1.89965C43.8466 1.68589 43.679 1.58243 43.5109 1.58839C43.3428 1.59754 43.221 1.72434 43.1445 1.96832C43.0378 2.50251 42.9581 3.12779 42.9064 3.84509C42.8514 4.56238 42.8239 5.26411 42.8239 5.95073H45.3887V6.40848H42.8239V15.4719C42.8239 16.0519 43.1294 16.4254 43.7399 16.5934L44.3124 16.7307V16.9596ZM52.0525 16.9596H46.1215V16.7307L46.465 16.6392C46.7705 16.5476 46.9812 16.4103 47.097 16.2272C47.2102 16.0441 47.2665 15.8074 47.2665 15.5177V8.35391C47.2665 8.01838 47.2102 7.76936 47.097 7.60778C46.9812 7.44894 46.7705 7.33908 46.465 7.2782L46.1215 7.18665V6.95777L50.0602 5.6303L50.2892 5.85918L50.4953 7.8275V8.0106C50.7092 7.58352 50.9886 7.18985 51.3335 6.82961C51.6756 6.47256 52.0571 6.1796 52.4785 5.95073C52.8966 5.72185 53.312 5.60742 53.7242 5.60742C54.3045 5.60742 54.7469 5.76763 55.0524 6.08805C55.3579 6.40848 55.5104 6.81267 55.5104 7.30109C55.5104 7.81971 55.3625 8.21979 55.0661 8.50039C54.7671 8.78419 54.4112 8.92609 53.999 8.92609C53.3578 8.92609 52.7931 8.60567 52.3044 7.96482L52.2586 7.91905C52.1061 7.70528 51.9302 7.58626 51.7319 7.562C51.5336 7.54049 51.3504 7.63662 51.1823 7.85038C51.0298 7.98771 50.9043 8.1525 50.8068 8.34475C50.706 8.5338 50.6098 8.75078 50.5182 8.99476V15.3803C50.5182 15.9905 50.7853 16.3723 51.3197 16.5247L52.0525 16.7307V16.9596ZM61.9681 5.60742C62.9606 5.60742 63.8079 5.80883 64.51 6.21165C65.2121 6.61767 65.7511 7.16697 66.1267 7.85954C66.499 8.55532 66.6854 9.34585 66.6854 10.2307C66.6854 10.3987 66.6777 10.5694 66.6625 10.7434C66.6474 10.9205 66.6167 11.0775 66.5709 11.2148H59.7468C59.7619 12.8627 60.0569 14.0483 60.6308 14.7715C61.2019 15.498 62.0519 15.861 63.1818 15.861C63.9453 15.861 64.5636 15.7388 65.0367 15.4948C65.5098 15.2508 65.9527 14.8919 66.3648 14.4191L66.5938 14.6251C66.1207 15.4641 65.4915 16.1205 64.7069 16.5934C63.9192 17.0662 62.9757 17.3029 61.8765 17.3029C60.7924 17.3029 59.8306 17.0694 58.9911 16.6025C58.1516 16.1388 57.4949 15.4719 57.0218 14.6022C56.5487 13.7325 56.3119 12.6947 56.3119 11.4895C56.3119 10.2385 56.5867 9.17328 57.1363 8.2944C57.6859 7.41873 58.3925 6.75179 59.2568 6.29404C60.1178 5.83629 61.0214 5.60742 61.9681 5.60742ZM61.8994 6.06517C61.4565 6.06517 61.0796 6.19791 60.7682 6.46341C60.4535 6.7321 60.2094 7.20496 60.0354 7.88243C59.8581 8.5631 59.7619 9.52117 59.7468 10.7571H63.6627C63.8152 9.09409 63.7543 7.89616 63.4795 7.16376C63.2047 6.43136 62.678 6.06517 61.8994 6.06517ZM71.7921 17.3029C71.0442 17.3029 70.3723 17.2159 69.7769 17.042C69.1815 16.8648 68.6319 16.6469 68.1281 16.3874L68.151 13.6638H68.38L69.1586 15.037C69.4943 15.6472 69.8653 16.1004 70.2715 16.3965C70.6746 16.6955 71.1889 16.8451 71.815 16.8451C72.5478 16.8451 73.14 16.6803 73.592 16.3508C74.0408 16.0244 74.2652 15.5863 74.2652 15.037C74.2652 14.5335 74.105 14.1215 73.7844 13.8011C73.4638 13.4807 72.8684 13.1909 71.9982 12.9314L71.0364 12.6339C70.1053 12.3592 69.3725 11.9321 68.838 11.3522C68.3035 10.7722 68.0365 10.0627 68.0365 9.22363C68.0365 8.21658 68.4336 7.36197 69.2273 6.66024C70.021 5.95851 71.1587 5.60742 72.6394 5.60742C73.2348 5.60742 73.7967 5.6715 74.3248 5.79967C74.8501 5.93105 75.3567 6.12605 75.8453 6.38559L75.7079 8.85743H75.4789L74.6774 7.43841C74.3875 6.93489 74.1017 6.57922 73.821 6.37186C73.537 6.16724 73.1125 6.06517 72.5478 6.06517C72.0289 6.06517 71.5402 6.21027 71.0822 6.50003C70.6242 6.78978 70.3952 7.20175 70.3952 7.73595C70.3952 8.25458 70.5908 8.66655 70.9814 8.97187C71.3694 9.27719 71.9446 9.55916 72.7081 9.8187L73.7386 10.1162C74.8377 10.4518 75.6241 10.9127 76.0972 11.4986C76.5703 12.0878 76.8071 12.7941 76.8071 13.618C76.8071 14.7317 76.3688 15.6243 75.4927 16.2958C74.6133 16.9674 73.3799 17.3029 71.7921 17.3029ZM83.2419 16.9596H77.8834V16.7307L78.1582 16.6392C78.7078 16.4561 78.9826 16.0747 78.9826 15.4948V3.2729C78.9826 2.95248 78.929 2.71582 78.8223 2.56339C78.7156 2.41096 78.5095 2.29652 78.204 2.22008L77.8605 2.12853V1.89965L81.8909 0.915497L82.2573 1.12148L82.1657 4.34861V7.20954C82.7001 6.76689 83.2772 6.38879 83.8969 6.07432C84.5138 5.76305 85.1962 5.60742 85.9441 5.60742C86.9366 5.60742 87.7271 5.88985 88.3165 6.45425C88.9027 7.01865 89.1959 7.88838 89.1959 9.06342V15.5177C89.1959 15.823 89.2568 16.067 89.3791 16.2501C89.5013 16.4332 89.7148 16.5705 90.0203 16.662L90.2035 16.7307V16.9596H84.8449V16.7307L85.1197 16.662C85.6693 16.4789 85.9441 16.0899 85.9441 15.4948V8.30813C85.9441 7.69795 85.842 7.2782 85.6372 7.04932C85.4298 6.82045 85.0661 6.70601 84.5472 6.70601C84.2115 6.70601 83.8451 6.7701 83.448 6.89827C83.051 7.02964 82.6465 7.25531 82.2344 7.57573V15.5406C82.2344 16.1356 82.5091 16.5169 83.0587 16.6849L83.2419 16.7307V16.9596Z" fill="#067627"/>
<path d="M44.3124 34.9491H38.3127V34.7202L38.6104 34.6516C38.9003 34.5751 39.1293 34.441 39.2974 34.2487C39.4655 34.0597 39.5493 33.8125 39.5493 33.5072C39.5493 32.9428 39.5539 32.3811 39.563 31.8227C39.569 31.2674 39.5722 30.7071 39.5722 30.1427V24.398H38.2898V24.1462L38.7936 24.0547C39.0991 24.024 39.3203 23.9174 39.4577 23.7343C39.5951 23.5512 39.6945 23.2994 39.7554 22.979C39.9079 22.3839 40.1341 21.8607 40.4332 21.4089C40.7295 20.9603 41.0684 20.5451 41.45 20.1638C42.0302 19.6145 42.6453 19.2286 43.2957 19.0057C43.9428 18.786 44.5794 18.6761 45.2055 18.6761C45.816 18.6761 46.3734 18.8011 46.8772 19.0515C47.381 19.3046 47.6329 19.7212 47.6329 20.3011C47.6329 20.7131 47.5106 21.0367 47.2665 21.2716C47.0224 21.5096 46.6789 21.6286 46.236 21.6286C45.8696 21.6286 45.5339 21.5293 45.2284 21.3311C44.9229 21.1329 44.6252 20.7818 44.3353 20.2783L44.0147 19.8892C43.8466 19.6754 43.679 19.572 43.5109 19.5779C43.3428 19.5871 43.221 19.7139 43.1445 19.9578C43.0378 20.492 42.9581 21.1173 42.9064 21.8346C42.8514 22.5519 42.8239 23.2536 42.8239 23.9402H45.3887V24.398H42.8239V33.4614C42.8239 34.0414 43.1294 34.4149 43.7399 34.5829L44.3124 34.7202V34.9491ZM48.8695 22.4068C48.3506 22.4068 47.9123 22.242 47.555 21.9124C47.1946 21.586 47.0146 21.1709 47.0146 20.6673C47.0146 20.1487 47.1946 19.729 47.555 19.4085C47.9123 19.0881 48.3506 18.9279 48.8695 18.9279C49.3884 18.9279 49.8235 19.0881 50.1747 19.4085C50.526 19.729 50.7014 20.1487 50.7014 20.6673C50.7014 21.1709 50.526 21.586 50.1747 21.9124C49.8235 22.242 49.3884 22.4068 48.8695 22.4068ZM51.5258 34.9491H46.1673V34.7202L46.4879 34.6287C46.7934 34.5371 47.0041 34.3998 47.1199 34.2167C47.2331 34.0336 47.2894 33.7896 47.2894 33.4843V26.3205C47.2894 26.0001 47.2331 25.7589 47.1199 25.5973C47.0041 25.4385 46.7934 25.3286 46.4879 25.2677L46.1673 25.1991V24.9702L50.3579 23.6198L50.5869 23.8487L50.5182 27.0987V33.5072C50.5182 33.8125 50.5764 34.0565 50.6923 34.2396C50.8054 34.4227 51.0069 34.56 51.2968 34.6516L51.5258 34.7202V34.9491ZM57.9149 34.9491H52.5334V34.7202L52.854 34.6287C53.3885 34.4762 53.6555 34.1023 53.6555 33.5072V26.3434C53.6555 26.0079 53.6019 25.7589 53.4952 25.5973C53.3885 25.4385 53.1824 25.3286 52.8769 25.2677L52.5334 25.1762V24.9473L56.4493 23.6198L56.6783 23.8487L56.8615 25.2219C57.3959 24.7491 57.9987 24.36 58.6705 24.0547C59.3424 23.7494 60.0065 23.5969 60.6628 23.5969C61.6704 23.5969 62.4458 23.8716 62.9894 24.4209C63.5299 24.9702 63.8001 25.8092 63.8001 26.9385V33.5301C63.8001 34.1251 64.09 34.4991 64.6703 34.6516L64.8764 34.7202V34.9491H59.472V34.7202L59.7697 34.6287C60.3042 34.4607 60.5712 34.0872 60.5712 33.5072V26.2061C60.5712 25.2297 60.0825 24.7413 59.1056 24.7413C58.4338 24.7413 57.701 25.0768 56.9073 25.7484V33.5301C56.9073 34.1251 57.1743 34.4991 57.7088 34.6516L57.9149 34.7202V34.9491ZM70.6242 35.2924C69.7233 35.2924 68.9145 35.0896 68.1968 34.6836C67.4791 34.2808 66.9112 33.6569 66.4931 32.8114C66.0717 31.9632 65.8611 30.8751 65.8611 29.5477C65.8611 28.2051 66.0978 27.0955 66.5709 26.2198C67.0441 25.341 67.6701 24.6832 68.4487 24.2469C69.2273 23.8134 70.0746 23.5969 70.9906 23.5969C71.5251 23.5969 72.0362 23.6505 72.5249 23.7571C73.0135 23.8638 73.4486 24.024 73.8302 24.2378V21.2624C73.8302 20.942 73.7811 20.7053 73.6836 20.5529C73.5828 20.4005 73.3722 20.2934 73.0516 20.2325L72.6165 20.1409V19.9121L76.7842 18.905L77.0361 19.111L76.9445 22.3152V33.5072C76.9445 33.8125 76.9981 34.0597 77.1048 34.2487C77.2115 34.441 77.4103 34.5751 77.7002 34.6516L77.9063 34.7202V34.9491L73.9905 35.2009L73.7844 34.3769C73.3722 34.6516 72.9036 34.8726 72.3783 35.0406C71.8502 35.2086 71.2654 35.2924 70.6242 35.2924ZM71.9524 34.4456C72.5936 34.4456 73.1812 34.2547 73.7157 33.8734V24.7871C73.1509 24.4209 72.5707 24.2378 71.9753 24.2378C71.2425 24.2378 70.6164 24.6603 70.0975 25.5057C69.5786 26.354 69.3189 27.686 69.3189 29.5019C69.3189 31.3178 69.563 32.5949 70.0517 33.3332C70.5404 34.0748 71.1738 34.4456 71.9524 34.4456ZM82.8755 35.2924C82.1276 35.2924 81.4558 35.2054 80.8604 35.0315C80.265 34.8543 79.7154 34.6365 79.2116 34.3769L79.2345 31.6533H79.4635L80.2421 33.0266C80.5778 33.6367 80.9488 34.0899 81.355 34.3861C81.758 34.685 82.2724 34.8347 82.8984 34.8347C83.6312 34.8347 84.2234 34.6699 84.6755 34.3403C85.1243 34.0139 85.3487 33.5758 85.3487 33.0266C85.3487 32.523 85.1884 32.1111 84.8678 31.7906C84.5472 31.4702 83.9518 31.1805 83.0816 30.9209L82.1198 30.6234C81.1887 30.3487 80.456 29.9216 79.9215 29.3417C79.387 28.7617 79.12 28.0522 79.12 27.2131C79.12 26.2061 79.5171 25.3515 80.3108 24.6498C81.1045 23.948 82.2421 23.5969 83.7228 23.5969C84.3182 23.5969 84.8783 23.661 85.4037 23.7892C85.9317 23.9206 86.4401 24.1156 86.9288 24.3751L86.7914 26.8469H86.5624L85.7609 25.4279C85.471 24.9244 85.1852 24.5687 84.9045 24.3614C84.6205 24.1568 84.1959 24.0547 83.6312 24.0547C83.1123 24.0547 82.6236 24.1998 82.1656 24.4895C81.7077 24.7793 81.4787 25.1913 81.4787 25.7255C81.4787 26.2441 81.6742 26.6561 82.0649 26.9614C82.4528 27.2667 83.0281 27.5487 83.7915 27.8082L84.822 28.1058C85.9212 28.4413 86.7076 28.9022 87.1807 29.4882C87.6538 30.0773 87.8906 30.7836 87.8906 31.6075C87.8906 32.7212 87.4509 33.6138 86.5716 34.2854C85.6954 34.9569 84.4634 35.2924 82.8755 35.2924Z" fill="#067627"/>
</g>
</g>
</g>
</g>
<g clip-path="url(#clip7_470_3)">
<g clip-path="url(#clip8_470_3)">
<path d="M26.3254 32.6295C25.4813 32.8211 24.5925 32.9268 23.6619 32.9268C18.6578 32.9268 13.1709 30.1682 8.98747 25.5471C3.91522 19.9454 1.9992 12.9247 3.61919 7.75371C-0.193692 12.6522 -0.988073 19.2061 1.35602 24.8141C1.5548 26.1339 1.95518 29.2423 1.4831 30.2796C1.4831 30.2796 3.92019 30.237 6.09746 31.2672C11.8136 36.1062 20.047 36.6468 26.3254 32.6295Z" fill="#E9DE2C"/>
<path d="M19.5876 29.9844L19.8411 30.0582C21.1097 30.4272 22.3506 30.6145 23.529 30.6145C24.9865 30.6145 26.3218 30.3229 27.5002 29.7467C27.8928 29.5537 28.2918 29.3033 28.7191 28.9819L28.9981 28.7726L20.1939 18.0084L19.5876 29.9844Z" fill="#E9DE2C"/>
<path d="M5.82263 14.9263L5.94473 15.4123C6.5872 17.9701 7.88206 20.5414 9.6916 22.8502L9.90244 23.1191L17.6652 16.7242L5.82263 14.9263Z" fill="#E9DE2C"/>
<path d="M13.8012 3.28869C12.7818 3.28869 11.8029 3.43769 10.8906 3.73072L10.4257 3.88185L18.9899 14.3515L19.4833 4.57008L19.2682 4.47926C17.3969 3.68957 15.5575 3.28869 13.8012 3.28869Z" fill="#E9DE2C"/>
<path d="M9.16208 4.52254L8.90936 4.69354C8.59629 4.90711 8.34428 5.1008 8.11995 5.30444C7.64431 5.73299 7.22902 6.23107 6.85064 6.82636C5.76094 8.53276 5.31512 10.7479 5.56288 13.2319L5.58772 13.4902L18.0437 15.3811L9.16208 4.52254Z" fill="#E9DE2C"/>
<path d="M26.116 9.29833C24.6451 7.76434 23.0265 6.48366 21.31 5.49388L20.8372 5.22071L20.3687 14.497L26.3638 9.55801L26.116 9.29833Z" fill="#E9DE2C"/>
<path d="M31.7241 20.2491C31.6787 19.8929 31.6091 19.5098 31.5119 19.045L31.4636 18.8194L21.3958 17.2911L29.977 27.7842L30.2305 27.4316C31.5772 25.5627 32.0933 23.0794 31.7241 20.2491Z" fill="#E9DE2C"/>
<path d="M31.0604 17.3564L30.8716 16.8306C30.1184 14.7326 28.9804 12.7253 27.4882 10.865L27.2773 10.601L20.9393 15.8203L31.0604 17.3564Z" fill="#E9DE2C"/>
<path d="M11.049 24.4296C13.046 26.5546 15.3744 28.2411 17.7817 29.3075L18.2254 29.5041L18.8288 17.5593L10.8048 24.1699L11.049 24.4296Z" fill="#E9DE2C"/>
<path d="M23.6213 33.1978C18.5704 33.1978 13.0317 30.4704 8.80708 25.9018C1.89689 18.4256 0.629719 8.32274 5.98167 3.37809C7.89912 1.60712 10.4683 0.671265 13.4115 0.671265C18.4632 0.671265 24.0011 3.39937 28.2243 7.96798C35.1366 15.4414 36.4045 25.5457 31.0512 30.491C29.133 32.262 26.5639 33.1978 23.6213 33.1978ZM13.4122 1.82991C10.7657 1.82991 8.46846 2.66005 6.76895 4.22951C1.88625 8.73994 3.18253 18.1099 9.65897 25.115C13.6685 29.4509 18.8877 32.0399 23.6213 32.0399C26.2678 32.0399 28.5644 31.2105 30.2639 29.641C35.1473 25.1299 33.851 15.7599 27.3732 8.75484C23.365 4.41825 18.1458 1.82991 13.4122 1.82991Z" fill="#E9DE2C"/>
</g>
</g>
</g>
</g>
</g>
<defs>
<clipPath id="clip0_470_3">
<rect width="90.3495" height="36" fill="white" transform="translate(-0.0548096 -0.0104828)"/>
</clipPath>
<clipPath id="clip1_470_3">
<rect width="90.1669" height="35.979" fill="white" transform="translate(0.0366211)"/>
</clipPath>
<clipPath id="clip2_470_3">
<rect width="90.1669" height="35.979" fill="white" transform="translate(0.0366211)"/>
</clipPath>
<clipPath id="clip3_470_3">
<rect width="51.9137" height="35.979" fill="white" transform="translate(38.2898)"/>
</clipPath>
<clipPath id="clip4_470_3">
<rect width="51.9137" height="35.979" fill="white" transform="translate(38.2898)"/>
</clipPath>
<clipPath id="clip5_470_3">
<rect width="51.9137" height="35.979" fill="white" transform="translate(38.2898)"/>
</clipPath>
<clipPath id="clip6_470_3">
<rect width="51.9137" height="35.979" fill="white" transform="translate(38.2898)"/>
</clipPath>
<clipPath id="clip7_470_3">
<rect width="34.3284" height="34.6365" fill="white" transform="translate(0.0366211 0.671265)"/>
</clipPath>
<clipPath id="clip8_470_3">
<rect width="34.3284" height="34.6365" fill="white" transform="translate(0.0366211 0.671265)"/>
</clipPath>
</defs>
</svg>
